<mxfile host="app.diagrams.net" modified="2023-05-10T23:38:25.571Z" agent="Mozilla/5.0 (Windows NT 10.0; Win64; x64) AppleWebKit/537.36 (KHTML, like Gecko) Chrome/112.0.0.0 Safari/537.36" etag="hzfIB86QE7PDKXDUc-Yx" version="21.2.9" type="github">
  <diagram id="6a731a19-8d31-9384-78a2-239565b7b9f0" name="Page-1">
    <mxGraphModel dx="1672" dy="679" grid="0" gridSize="10" guides="1" tooltips="1" connect="1" arrows="1" fold="1" page="1" pageScale="1" pageWidth="413" pageHeight="583" background="#0079F5" math="0" shadow="0">
      <root>
        <mxCell id="0" />
        <mxCell id="1" parent="0" />
        <mxCell id="-VKRcfKKGnfU7Yh5SjRk-2085" value="Read Database" style="image;aspect=fixed;html=1;points=[];align=center;fontSize=12;image=img/lib/azure2/databases/Azure_Cosmos_DB.svg;" parent="1" vertex="1">
          <mxGeometry x="457" y="562" width="64" height="64" as="geometry" />
        </mxCell>
        <mxCell id="NSMJBN_e0fo4ytpCGNTQ-4" style="edgeStyle=orthogonalEdgeStyle;orthogonalLoop=1;jettySize=auto;html=1;exitX=1;exitY=1;exitDx=0;exitDy=0;curved=1;" parent="1" source="-VKRcfKKGnfU7Yh5SjRk-2088" edge="1">
          <mxGeometry relative="1" as="geometry">
            <mxPoint x="357" y="362" as="targetPoint" />
          </mxGeometry>
        </mxCell>
        <mxCell id="NSMJBN_e0fo4ytpCGNTQ-5" value="Domain event raised&lt;br&gt;and put on queue" style="edgeLabel;html=1;align=center;verticalAlign=middle;resizable=0;points=[];" parent="NSMJBN_e0fo4ytpCGNTQ-4" vertex="1" connectable="0">
          <mxGeometry x="-0.32" y="-12" relative="1" as="geometry">
            <mxPoint x="-6" y="21" as="offset" />
          </mxGeometry>
        </mxCell>
        <mxCell id="-VKRcfKKGnfU7Yh5SjRk-2088" value="&lt;font face=&quot;Tahoma&quot;&gt;Domain Model (Write Model)&lt;/font&gt;" style="ellipse;whiteSpace=wrap;html=1;aspect=fixed;" parent="1" vertex="1">
          <mxGeometry x="145" y="128" width="86" height="86" as="geometry" />
        </mxCell>
        <mxCell id="-VKRcfKKGnfU7Yh5SjRk-2094" value="Client" style="whiteSpace=wrap;strokeWidth=2;" parent="1" vertex="1">
          <mxGeometry x="-354" y="185.5" width="129" height="25" as="geometry" />
        </mxCell>
        <mxCell id="-VKRcfKKGnfU7Yh5SjRk-2111" value="&lt;font face=&quot;Tahoma&quot;&gt;View Model (Read Model)&lt;/font&gt;" style="ellipse;whiteSpace=wrap;html=1;aspect=fixed;" parent="1" vertex="1">
          <mxGeometry x="147" y="551" width="86" height="86" as="geometry" />
        </mxCell>
        <mxCell id="cMTnH-UVxewZ_KafLdWO-2" value="Event Store / Write Database" style="dashed=0;outlineConnect=0;html=1;align=center;labelPosition=center;verticalLabelPosition=bottom;verticalAlign=top;shape=mxgraph.webicons.mongodb;gradientColor=#DFDEDE;labelBackgroundColor=default;" parent="1" vertex="1">
          <mxGeometry x="428.6" y="118.00000000000003" width="92.4" height="88.4" as="geometry" />
        </mxCell>
        <mxCell id="cMTnH-UVxewZ_KafLdWO-26" value="" style="group" parent="1" vertex="1" connectable="0">
          <mxGeometry x="-22" y="71" width="110" height="245.905" as="geometry" />
        </mxCell>
        <mxCell id="FQLjCHzrVEqeMGWYMrkH-18" value="" style="group" vertex="1" connectable="0" parent="cMTnH-UVxewZ_KafLdWO-26">
          <mxGeometry width="110" height="245.905" as="geometry" />
        </mxCell>
        <mxCell id="-VKRcfKKGnfU7Yh5SjRk-2092" value="" style="whiteSpace=wrap;strokeWidth=2;rotation=-90;container=0;" parent="FQLjCHzrVEqeMGWYMrkH-18" vertex="1">
          <mxGeometry x="-54.25" y="128.74" width="218.5" height="15.83" as="geometry" />
        </mxCell>
        <mxCell id="cMTnH-UVxewZ_KafLdWO-18" value="Application&amp;nbsp; Layer" style="text;html=1;strokeColor=none;fillColor=none;align=center;verticalAlign=middle;whiteSpace=wrap;rounded=0;" parent="FQLjCHzrVEqeMGWYMrkH-18" vertex="1">
          <mxGeometry width="110" height="20.64880112834979" as="geometry" />
        </mxCell>
        <mxCell id="FQLjCHzrVEqeMGWYMrkH-5" value="" style="endArrow=classic;html=1;rounded=0;" edge="1" parent="1">
          <mxGeometry width="50" height="50" relative="1" as="geometry">
            <mxPoint x="45" y="168" as="sourcePoint" />
            <mxPoint x="145" y="168" as="targetPoint" />
          </mxGeometry>
        </mxCell>
        <mxCell id="FQLjCHzrVEqeMGWYMrkH-6" value="Command" style="edgeLabel;html=1;align=left;verticalAlign=middle;resizable=0;points=[];" vertex="1" connectable="0" parent="FQLjCHzrVEqeMGWYMrkH-5">
          <mxGeometry x="-0.5667" y="4" relative="1" as="geometry">
            <mxPoint as="offset" />
          </mxGeometry>
        </mxCell>
        <mxCell id="FQLjCHzrVEqeMGWYMrkH-7" value="" style="endArrow=classic;startArrow=classic;html=1;rounded=0;entryX=1;entryY=0.5;entryDx=0;entryDy=0;" edge="1" parent="1">
          <mxGeometry width="50" height="50" relative="1" as="geometry">
            <mxPoint x="420" y="172" as="sourcePoint" />
            <mxPoint x="231" y="172" as="targetPoint" />
          </mxGeometry>
        </mxCell>
        <mxCell id="FQLjCHzrVEqeMGWYMrkH-8" value="Client" style="whiteSpace=wrap;strokeWidth=2;" vertex="1" parent="1">
          <mxGeometry x="-354" y="578" width="129" height="25" as="geometry" />
        </mxCell>
        <mxCell id="FQLjCHzrVEqeMGWYMrkH-12" value="" style="group" vertex="1" connectable="0" parent="1">
          <mxGeometry x="-29" y="333" width="412" height="108" as="geometry" />
        </mxCell>
        <mxCell id="cMTnH-UVxewZ_KafLdWO-36" value="" style="group" parent="FQLjCHzrVEqeMGWYMrkH-12" vertex="1" connectable="0">
          <mxGeometry width="369" height="108" as="geometry" />
        </mxCell>
        <mxCell id="cMTnH-UVxewZ_KafLdWO-17" value="" style="shape=image;verticalLabelPosition=bottom;labelBackgroundColor=default;verticalAlign=top;aspect=fixed;imageAspect=0;image=data:image/png,iVBORw0KGgoAAAANSUhEUgAAAgAAAAEACAMAAADyTj5VAAADAFBMVEUAAAAkHR0jICAkICAjHyAjHyEjHyAjHyAjHyAjHyAjHyEjHyEjHiEkHh4AAAAhHSEjICAjHyAjHyAjHx8jHx8AAAAuFxckHx8jHyAjHx8oGxskJCQiICAjHx8jHyAkHiAkJCQkICAjHyAjHyAjHiErKysjICAjHyAjICAnJyckGyQiHyAjHyAjHSMmHh4jHyAkHx8jHyAjHh4hISEjHyAiIiIAAAAjHx8jHyAcHBwkHx8kHyAiHCIjHx8iHh4jHyAjHyAzMzMkHiEjHyAjHx8jHyAjHyAiHiAjHyAjHyAnHR0iHx8iHx8jICArFSskICAjHyAiHiIiHCIjHx8lHx8gICAjHyAhISEjHiAiIiIiHyAjICAjHiAjHyAhISEjHyBAAAAjHx8mGiYhISEiHyAgICAiIiIjICAiHx8kICAjHx8jHiAgICAkHyAjHx8kICAjHx8jHyAjHyAjHiAjHyAjICAjHyAiHiAjHyAiHiAjHyAjICAjHyAjHyAjHyAjHyEjHx8jHx8iHyEiHyEiHiAlICAnHx8cHBwjHyAiICAlICAjHyAkHiAkHyEjHx8jHyAjHx8eHh4jHiAkHyAjHyAkHiElISEjHyAjIyMgICAiHiIkHx8jHCMkHiEiHx8jHx8jHyAkICAiHSIjHyAkISEjHyAjHiAhHiEkHiEkICAjHyAjICAjHiEkHx8iHiAjHyEkHyAjICAaGhojICAkJCQjHiAgICAjHx8jHyAjHyAjHyEkICAjHh4iHx8kHx8iICAjHyEiICAjICAkHiEiHx8jHyEkHiAjHx8iHyEiHiAiHyAjHiEkICAkICAkHx8jHx8hISEjICAiHSIkICAmHBwkHyAjIyMjICAjHx8iICAiICAjICAiHyEhISEjHx8jHyAjHiAkHyEjHx8jHyEjHx8kHyEiHiIjHyEjHiAkHyAkHh4iHiAkHiEjICAiHx8iHx8jHiAkHyAjHiAfHx8kHx8jHyAjICAiHyAiHx8jHx8jHyEkHx8kHSEiICAjHyEjHyCWGF+oAAAA/3RSTlMAI2CIr8zd6OnNtIxlKwE9meHnokkDC3LlghMHeOvyhw4/1eZeBpD+qQ0cyNksIu8x9jsX7CYCu9QJepYt+0O+1gVV+ePf92/RrhpSSqoMgLdEJdspEL8ubh7eibj6L/UEkhQ29BgPUGJHOqAI7cO608a9sOChxcG1udjSp/DAhFFBnI13MCES7rI3+Mlk8+R7EeLQrVQ+xx0gPDIkVqtz/Xk0/Eamn0VdcdxnZmN/daXCCsoV2ijL6s59gTNaa2lsYUhNS4WPQpSGz204T2qKJ7E1QBvXFlebWXBflR+D8ZesmryLpEzEmJ0qflxYo1t2nqgZObaRjlOTfLNOaHQADG0wAAAcvUlEQVR42u2de4BP1RbHDxpM8YtqBjPFeI7HZYzHhEweg5DReN6oMb8YlPcVrpJnSYzXIMajTKRCL49QIonrSgqVJNHVQ9e95Zb0UN1zxx3GnLXWPmfv8zvz27/R+vzHb+191jnrO+ex99prGwbDMAzDMAzDMAzDMAzDMAzDMAzDMAzDMAzzh6ZI0WJXhRUvUbJ4+NXXlCqt2xsmqPiuLVPWtHDd9TdE6PaKCRKR5YqbBOUrROn2jAkC0TfeZAqoWClGt3dMQVO5imlD1Wq6/WMKlOo1Yk17atbS7SNTcNSuYzryp7q6vWQKinrFneNvmnHX6vaTKRjql5CJv2nG36DbU6YgKCIZ/xwFNNDtK+M9DaXu/7k0aqzbW8ZrEm6Wj79pNmmq21/GY5qpxN80b9HtL+MtzRPVBGDeqttjxlNaKMbfbNlKt8uMh7QWhDmpTdt2gp9u0+0z4x2+9lTwOxTteOHHqNuvjyN+Lh+t22vGMzrh+MYmF7n8e+c74rFFKd1eM56RgqIb18Vq0bUlMmmv22vGKxqiT4Bu3aFNj55IAX/W7TfjEXfC0JbshY2iekOru3T7zXjE3SCyqeR8X580fgZcmfgrgsjeQ9tVgO+JfXV7znhCPxDY9P603YBGwHCgbs8ZT7gXxFU4zl8JGDbT7TnjCTCu94kMBwHDwbo9Zzwh2RrWtCEiw4ihVsthuj1nPGG4NaxNxJYgZ3SEbs8ZT/iLNawjxZb3Wy1H6fac8YRwa1g7iC1Hg/Ei3Z4znjDGGta/ii3HWi3b6vac8YQHrGF9UGwJ7hXjdHvOeMJD1rAmCRd/tRpvtZyg23PGEyaCz/tJIsPJwHCKbs8ZT6gmO77zMDB8RLfnjCdMBXFNepS2mwaeACYvEbsySHgMBHY0bXcXMEuM0e054w3TQWRjyWm+GRnAbKZuvxmPmAUia84magD0nwOt5ur2m/GITPi3bc6bCm16zYc2sUXcHIsJRRbA4Jrpj1stFuK144tkex+StTizs+5TZOxYYmKGL738+7KaROmgJ5z7jWhw40NNZv/fevyIJ5c34OVkocoYQgHZdZ5a0T/B179+uQkriZ+7ORWOTHh6FcgfMIc+0ylB96kyFM+aAhJTRb88Z99j09W9yWZr7uSnQSjSwVRkkc+uu4S1c4QtSzzPRWdDj8XpavFfucKut+5/sW08f6qsW0zQeEFNAC/adOVbnuHQOuMlfhUIOV5Wif86m7v4kNESHXRYr/t8GUCtcIm4XaR3f3E/0zZIdVFno+4TZgAbX5GNf6NN4l4yN0t2Mm6a7hNmAI3byIVuSz9xH51flb6N1OHvwVBjsdQ9oNsycQ++BTI9XORJn7xrTFDIfMA5bIvsHt6vKcTfNJfrPl8GErE6zT5mqVur2zR/Xa3aYGIf3efLIIq0sAtZuG3Iokcoxd80Z/KYYOjh29ZeFK/y2/22Tcspxt8039B9tgyB74YJVLDmlxpi3w4VkMhl5as3d5i+Jpv8bc4QOZeYINP9xTBLxGJHVKrv2OgOIsLZyfflrjNZP3A69YKwQ/eZMiKiZueLUz2JBtWvw/G9Kv8nYxHiG6MsTwqELPlXAchsFbYNRTd+LTB5MwnZ3CfRM6MFVQGgcqNpeGeZnWnQqKbu02REKAogBs4BJ75FWO2CyYXpXHM6VFEUAKo4v5s0+xs026P7PBkBigL4OwjsKHrGP3oNsNur+zwZAYoCeBsE9k2B3T5g94Du82QEqAnAD17w00WTvZ3jrIbldZ8nI0BNAMvAH/bLQktQltDsoftEvSEi6539775W7L0ylXV74hVqAqgMwrpPaAlnDA7oPtHAyWx9S1je3krv6vbGK9QE8DgIq3hbOSiVQdIeTXnMwtO6r1Auvl0HLY+/ywJ413qir+n2VBE1AcA6M+Klw/WB5U5pj1ZZG+7SfYX+Txe4bPoPKoCi4DKI80brAstnpT0KQQFE4hz4P6gA4EyAePHPIWD5vrRHoSeAD4gc2D+oAHaBy7BfaAkfFisc+75EyAkg6kMc/ytGAJH5N5I57Gi+AlyG94SWsNZUQ2mXQk0AEX8l4n9FCKDHR1PGWWoCJLY/8nGmbZNp4DLUEVpWsRq2k08ODzUBHKXiX/gFEPnJSDK5N3HCrBibZiWBueglAN4q5st7FmICaDibukyFXQCLj1U0haRPaSxseDWwvV5gBxehHpH3LcQEUIG+SIVaAJ+OFlYEySW7puj7bi6wTD1Emi2BCQEKWxCHlgCib7riBBB5PN50JPVv9OD9UmjYjZoOqgWXDsT2MqQJLQE8jS7Nic+2HarX8XKGS2ETwBK6qg/iOvLKT0KJ3//ARcGqD4dGYQoOhpYAUGrLZ1DxhUsA/kpULTCak01h6013E2ZjYU5ILVyK6EYFF0NLADABYjWyKFQCiPpcOvw5hGdZGsd8Qb86vGp9D2j+ILLIkB8FCDEBJIDH5XBsUpgE0LW4SvxNs2S+GgG+alVFZtllmueZ1R2Mk8LNL1WcDCkB1ANnQoxoFyIBlCYWddhTMS/v4XX7kmDhez+qO/X1r/aeIoqNmtl/VvEypAQAtk+5iVjhUngEcEjwRWNHfO40bt+T2ept8xit5GZICeAtqzMphEmhEUDXLW6Cl57zgPfveMxN00ukfarkZ0gJ4GOrM9SO24VFAA0Vn/+XKFmkcnt3LS9xp5qjISUAsMnCXYRJIRGA/5Tb+MUFFn5zneLK0JASwPNWZ44TJoVEABMDDKNrqn6g6KnnAli/8PkvDn4e9mH4509+fbRBU6W2OgTgX1Ftd/LNM0fM79nhn3Of9Sidek8gL3GIRPne2s1QddVbAZy+Y531uzRx5tH+8s2DLoCOq8da5+liW1ZoHFiXF1g/ysv4jyxdKlbSNGmgsq8yAvhXccCaTpRZ531kYdSVV79zyeK0tZtnLv1/5sX/AB9OcXmW/1YSwDbob3HyxSjim+HkQG2d2/PSKbpZetkse1GPi0O05ttmz90+8Mx/vqtiyjHqwj4zO+TuAUn7ZT1UEsBadCBqd8vMfzUSOnb/6VwbkLyccqltX6czU5oN3IMGx0YTCTLVS60RHm7DpdW11uu+RfKaLhMV9v7TjYsvW3U8Os45pPF35D5EtznVCr/AUPlcYBUBvIX+TIjUNN+9tsMeSct9QRPAn+FenOZBP7a69U+2B/xsfQAC+J7u88PW4AXdt8upBuyCPMHMcC4522SZpH9qApiRBg80Bf89dR3j5N3waUESQK/ysHFPXDUr07GOe8vurgXQlXywpM4lqkFG3JZm40OVLvlM+9a0dzi7hrti8U4C6Ir+shfgQoStTzhdT9McdzYoAshEz9awGOTvColJ+ptedyuAI1R3c36gjZsLSwmPPwqm/ifZjS21bODsmBsB4AGtz1H5Ed8XzpczhzX9gyCAIetg0wdxGd5PZB6o5ol+7gSwker9FeH4bF96K4Dsf+Ks8SFH5wh8bfuS683j7AXQGRWqn4mWM0Q8IxV/01w0pMAFkPAkbDkPZ0fdJvlRVfUDVwLYR3Q1qqPYPpP6HhhFJ/9FP7cOO5949/4A6sLZCsB/Dh6sShSKf7Ipy8kCF8CPsOFN3dEZ3yjt70y/GwEQf9EnNtk16FUStyghLPibte9gfvs2D70QZQSCnQB830G/RtVGHRyTvp5mLFjF7rkAXoLtKuI/pKKygyo5LHchgANEPx/bN7mBcOlauwaLu5R6qlixSo+88H5HI1DsBIBytEviUbL/yF9O0wRJ/14LYBu8kBm4WtbTqU7Hyke6tUMpAazG3Vzl1GYKblMj4MgGLoDnoVPj66PmC+WTHjEeCwANAK2chPzt6CJLQ00AB1GzjMVObQ6joQuziX4BfAXXMsXjQi09ygZwPS8LoEdYLmAIvWrYJS5vuy0WABoAisU1tXzDA/FXRgARcajZSedWe1Gj7GBV+REKAA0AUUUqBbvZjb9/4nOd3r/v4+01Nthtd5ECuwtkMqjXHNg9sXnKdtqR1HU/Pb//1sk/lzr+gM0aLikB9MHNNjm3Oosv0w2aBYAymmKJjY1nUC9UGV9O9l82Wf9NC+Fbl5cCwB9TRLHEaUMpNyacyfdpG7FktHAlj4wAvkGtZsqEAdUENucWeOhzEQjgMJopuQ239S3CFyn7SBY0K31zwQsADwCVISaAfiGcGIbqKWX+JHhRlBHAi6iV1CqNUqjZdwUWciu0APAAUAWi7UB8jXqTny+t6YnCFGjnWgB4ACiZ+JD+FN9o07ZTK+nrznQtgFWo1TsSrYyuqFnPAgi2hMO5Aoi4H7pD5WcaOO/tlGD7s3pNClYANWDXn1P1sh9GHlQVlFKJJkc3ZQQwDDZaKVe5Ow62a+tllG2gBOD7J/RmFTXW2A9doXPC7c9iqL+pFGjlVgAvwZ4XRVI+nIBmbcQfaO+5FABc3GYWl4sDGj98zLMQ20MJYCt0Ziw51YDGCRfZZABuxEvYPBMAGgAaQW6hixJb4mzez33EPUBGAOjd6ZRcHNA9N8mT8DpDCAC9kJwiZ5qrw+ULJWwTUrumF5QA0ABQb3qAdCQwi/3Kzl9/HVcCQOP6d8vF4Ut0NNfze2pgAeyCr0rj6EpGX0GPJ9kf6Y0CEkDdOBinA+Tx+8NBy8/s/T2APgdlBFDCpQC+DRkB9IN/qd0Eab0ngd10hyP5UNZQCjRxIwA0ABQn2IgTrDoxtwxwcPi8GwF0g43WycUBPQIyAgiqClAAy+AAUPlHBS1BPb/s5k6HmgzPMQVauBAAGgBKWyI4/GBgWM7J31rw49XVS2A3uTigl+RGLgOqChDAm/AlZmhdQcON4M3rV+djwU+kFGigLoCJsKxgaifR0cGZxTmn0MFtu2UEgMocJlaXaGUYaD2o5NdDwAABnABupP8gavgbsPzK+Viw9nEKNFAXAHxeZW8THbwhsPzF2d/a4K1BRgB4dqSfRCu0NYRpjnQRTDfgkav8JInLx78E/qAkhN4ZvFalQAN1AUC2Cw++EFjaZlxcBIxhywgAvTiYL8mEYRZqplDqLyBsBbDyCXHDr62m38scDJTMSYG/ByyAf4mP/abVspHMJusg20VGAE8gnxbJXJmxqJlKoadAsBNA7FqbhuCvQ2pVOniopsDfAxXAjzbHnmg1vVrGXzDWKSOA0/gqdnVudRhPPwVr6w47AQzdaNMQvH1LpaVPKmAB2N3WwbhlBUOCSPWUMB/O8Dzm3GoiapTt9JHqFbaPgHM2RadBLpDUGmCQLZECfw9UAG1sEmRB8vInUlfHGk2plLB/IK/is5zaROGaMO2VohgA9i+Bq8UNrcl1sVL1yc8WsADMDuJjg7rLchtsW5dvSgmAWBawyqkNkVn9k1IUA8DhK+B1YUPrG3261MFA8mcK/D3wrwDx9mI9rYZLDBnC1AXQi1jJ7bBquzKRWWv3NPN1/+3OSsfKfHb86MB68hsDCAACAO/2ZjfhvibWFO94qYNt9FwA36ZZ/91OWCMPfIHIVdKwrt6VWxhC7HjRyLZw12Fi4W8J4VqfwzvG5n9gVPz1DbWqYBAggMnXA0+EVSfBy05nmYNN9VwA538H/raMFBx7utVOrhSKi3cAnE2fQxWbnUHWU6kSbelMlehqKTirKXv44wFMHEEBDGgLuhe9LQG7ejIHA6OHKQ7XTkYAPhBYc4rg2GDRflEZf9e7WBhiZFJ7XoQJNwgaMMGkyD6CW/hnzTNp2n4iM6xBAgVgLAEPpNkH6IagHMytMgfzfhzgvHEYTsB+RB/7FquV1GfgO9Y2ksvDUcnzC3QTPJsajzAFxN3mt5o+IVxJnkMVt2nkSADom/RtOqkNFCnfKnMwsGomBf7uRgBGJzArNZ6+GT1itZog4+8OVwLIIpOK4/cRf6QJpezWITTJ/1d1drppzxGJ7eilBNAKpqfdQzb8yWr0V4ljtYorCAEYfwf+ziSfiB9ZjTJkCthd5UoAOFcul83o03PPItOeyyViFjpXnl5T2hsBGI3BFFvsb1RDEIkMCf3B/UA8EsD6lqBfqsIo2lhLoqDS+jR3Augo+rMOe7fvZauo32eajsRvzZ21LiqzpvVEJ0kHHQSA3mMb1SYazgBGLzgfC35heCQAYylICsymRnmiQeEO0QZc+TgD/JUVgM2S6ezwY9sndekyafuxMMnqj2Vb53RYTm5Ne+ITsh7aCwCtcJ1APL6iwVV33qemI0ze9EoA6IKXoAamwd9bvPPGnbDsobQAqlO7n7qmRfPfZWsaJP7sjQA2wgfOi0RLmDXruGP5T9BdzwSQAIb5zOHEOMo9wKaSk787ob/SAjBWEPt4uEehVGzSIGkf7QSAalasXIhbwlVwI/z2R+qKLopnAjB6xYGuiVKWNwCTeIdl+3603FReAMZyLwWgwnWOM09SAkDLKIl5NrSn3SO2B/LhBbDeCQAtyk3FQ73RcIBmrP04+n+RvwoC8OEMD0lUKphQnAqsXPwlATSF8j+IrpYPFodIOmR3oHLYVw8FgPLqe+P5dLSA1DaJpR++iysIwIiZ7y5+Q0sXVd5qyIpjtrOUAIyp8Pz3oaZoBVl5mw0rbyWU7aUA0BB2TdS0Ezx+qs2ccG2i4LeKAIyOriqGxzfI0c41Ad0F4h9VcVMoALTgMgPtXJ2FZjEfFCqgchrhqpcCMK6F3qD9cyNQSGbvMQR0pIZdlQRgbHLxl5yaO+Sy6YFAFKC0a5xYAAktYHTRhB9azWLOE+QPnEmnPPVUAMZu0Hvaadi2GfIggyh7coGlZC1ZNQEYjUVTN0Li80ZyBtpvOfRhjVmDDnX5pkYY9WP2VBUvhQIwsmCe0jOw7VL8eZpE1SwdcItJ4q0AWsGiFuPgaG8MUSFmMLGQOGJHO9JfRQEYix80lXgsXxWuIefTRGaxgy8vNXj9W6IIk2MGkpwA4Oi5aZ6BjRcQ7n34Mxg1arpDVJrNWwEYB+Bt5jPYmCoSOrRcjNUo4SuymoULARg9zpkKVLGWe88SlAevYk0WGtQWWSQpbNJiJwA0dFsRFqQ/TY53lJ34Tt6nSOTkr+OEZ+yxAHABADguFkkW3a9YZlfevcJff6v45U1ZAEbEVrsqaVZWodmU96kdJVrAJ/EAPE34lEcCiIFPws1w+U8Fk2b2htE1ju/9Orm9bR1JrwWAhrAfg9lSbwk8SW1S81ilCr+8PCzNzl91ARjGDPuNKfJoRA3j++9EdufwLGY02qI63CMBoOQQ82F47IAGvT0XABrCPuUHzR12XbDHjQCMpufTnXum8n8u8A40nEfVj6wFn1mxvQxpbAWAdj+KhROO9YVF9XQIAJddngiaR7U13eNKAIZRe4rDzEDsuaWCpnCoJXsyabYQnnYpQxp7AaDkkC2w+ko1lSsIFtx7LwCUHJINv/SVFDvUTU4gQVaNOPFBkr6vL2wIb+4L5KKosrLUXgAoOcQcCYear5G/non3FrgA0BB2ebi87WOFPR2ruds0imDIthRym5LY8KN9xa18sPyxaDUDLNimsK7IQQC4YtRc6CRcSiBmr2jDCO8EYNSHt1s05SO9C2OOf54JIIfI/fcsso4vvPLyLPt6/x8Ah8YJLcGIQ5L8jJCTANBwXyJcBppAbpJE0DM6CALA2ThocmS75D2g91lPBXCBVifydee82QOsaXCP0PIuYCk/EuAoAPRmPQotcrhR6oq+PcAIhgDQEHYSWmOxn8rcR5Ts6nbfQBvi8nUX6WgNiw18I7Q8AyxXOPYtLQBjJ7xl4jeRgXGmI+H9jaAIAA9h4+VtfcSbhuYxp76hXQDw+Suebwdrrsw9jn3LCwDlUplvIJMPHPMfvrwwgBEUAeAhbDw9FvmL04vAmLOGfgGAdQlmXaElLDYtX15CQgDozTqeqAj3b9vp76G5H6bBEQAawqaWty2kt+u7SMbE3DFPzQJ4A7gl3ti8O7CUXyckIQCjD/yCqUKUWKu+A+3ZeonEMhcTyoIkgBg42kMtb/NNEu/dfPWlqi6aBQDLqonX3/0ALOX3Eb0t2QK9uOTNZACZfezff5Ca+ii5O29ZwaPWXprBHrpYf6feeZ62mtxO+jsI+tuMNGvwHfU2mFbm8g2upqUX0bpTBdQEsAu4tkNoCcsmHAjcVVdEPXHS8n4V2/LhZ+Xq5eth/c5r5ltEO+/IzzEFeUA1AYA7pjlaaAnLoAZryymKzks/fmR3jTJfF2tW9JBU1QDNVD99+/KtD5cp895raxcGtgmnBGoCAEWqzNmi69kUpLqUD/ZFZCRRE4ABE8MEGWzoZUGyRDkTdBQFAL9nug0hzfztgd1u3efJCFAUAKogS5dhuAOava/7PBkBigLoDwfZk7oQVoPgx1dFuQrlTPBRFICBNtmYjYeDf4iDRlKFmxkdqAoA73U7HiYPvoUHMySKXzBa6JG/dshGiQa1TqDomifzz/WeJbIc2yquD2WCQ5/j4ZYk29Qx5w84NvoRx9fMmPJD7vKb6GdfpjLcdug+UwYTPetVIlTmoucc3tc6plHNzPhhyclXtaQXHbQJ5bHXPyj+teSSlAuMesG+xuNxU5Xtkk4xQWOQbbGAV3+wa1urrGzgL7LBr/t0GSv+O1bahyz2R7vnwB7pJNb/k1RX2jEmKPSd4By1MQ1tOvjRuX0+lus+X8ZKveIyYZt3WtxDqxYK8X8o4A0EGE9pPEcucFtsqjpEdZPrI4cNMqNLTPA421s2dFvECX9GlqwC5hd4QgOjRMzbkpHL4RWbkcHacovMN/SVd40JBquk4naRnjYDAtNkykYtcN4OmQkqayWilo+5Nl1F3OW0/Cq1GU8BhBiPKhZPSLQt7zXIvuTUiKWybjHB4qBk4PM4ZfsNN2S3uNZIox1+3WfLQHaKopWRJvrljH2Phx+OI5uVf0pnGjgjYAwRquwx/+kzLefr4PTvd1N1Yx50eow3rTYStmt3/zecARaKVCYCPDLfgzprMPFa97hzv533fzH84pL9xHk37/4tRveJMjS4imY7cIfvNweZDJPsvFX/0qfr1fbrPkdGTCaqCVQS7ebxAdyUxoxVK/XNhC5oB9nZxDxtJqpUcV79SExIAmsrxZIrqpvDL7tFuv1mvCEBFqoR5OrDnZcS3e3/yYQasGjPygO0Xa0twPA+pcMwocq/QVyTRYYw6fO/uj1nPAHWUReO8cEin2V0e854ApgIXinM1EgoabVsodtzxhPAXiFtxJbrrJbzdXvOeMIwa1g3iy2TrZbFdXvOeALYz+sBsSXYUauEbs8ZTzhlDetMseVDVstRuj1nPAHk8JUVW4J1IyN0e854wvdggG+A0BIsGz2l23PGE+A+pq1Fhn2A4WiVozAhC6zcd73IEO5ny9OBVwYrQFyTFtN2Q+AGw5N0e854gv8ECOxg2q4cMIs9rHYcJlSB2wZnkyX8l8FZ4xG6/WY8AhV4i+uKjdCen2Yx3X4zHrExFcZ2zSZoM+BmaGP20e034xW/ouDGgWSPxnjn5Sa6vWY8o4uJ+TXfYyCzWDtsoLDpLxPqhBMKSP11Vu0LCwD7Pv7lCeLnqlzi7wpiv0mT2qZ3O8FPR3X7zHjJOVORlq10u8x4yaYMRQFwle8rjNVq8T+m21/GY3xKJSKaNNXtL+M1UR/Kx/+mxoEfjwk1as+TjX/8oMCPxoQeS4fKxT9poG5PmYLhdBuZ+Kfv1O0nU1B8utk5/sW5xtsVTPTfneLfgYt8XdlUrmIX/uuq6faPKWiiH9kiCn/FYgMC758JeSKXr6HCX74CF3j/o+C79muweUD5wTsjAu+XKUTUe27vgs2vXFdyTdj09+7trtsbhmEYhmEYhmEYhmEYhmEYhmEYhmEYhmEYhmGs/A/+0Fxeuob9SQAAAABJRU5ErkJggg==;" parent="cMTnH-UVxewZ_KafLdWO-36" vertex="1">
          <mxGeometry width="216" height="108" as="geometry" />
        </mxCell>
        <mxCell id="cMTnH-UVxewZ_KafLdWO-29" value="" style="shape=image;verticalLabelPosition=bottom;labelBackgroundColor=default;verticalAlign=top;aspect=fixed;imageAspect=0;image=data:image/png,iVBORw0KGgoAAAANSUhEUgAAAgAAAAIACAMAAADDpiTIAAACE1BMVEUAAAAAAAAAAAAAAAAAAAAAAAAAAAAAAAAAAAAAAAAAAAAAAAAAAAAAAAAAAAAAAAAAAAAAAAAAAAAAAAAAAAAAAAAAAAAAAAAAAAAAAAAAAAAAAAAAAAAAAAAAAAAAAAAAAAAAAAAAAAAAAAAAAAAAAAAAAAAAAAAAAAAAAAAAAAAAAAAAAAAAAAAAAAAAAAAAAAAAAAAAAAAAAAAAAAAAAAAAAAAAAAAAAAAAAAAAAAAAAAAAAAAAAAAAAAAAAAAAAAAAAAAAAAAAAAAAAAAAAAAAAAAAAAAAAAAAAAAAAAAAAAAAAAAAAAAAAAAAAAAAAAAAAAAAAAAAAAAAAAAAAAAAAAAAAAAAAAAAAAAAAAAAAAAAAAAAAAAAAAAAAAAAAAAAAAAAAAAAAAAAAAAAAAAAAAAAAAAAAAAAAAAAAAAAAAAAAAAAAAAAAAAAAAAAAAAAAAAAAAAAAAAAAAAAAAAAAAAAAAAAAAAAAAAAAAAAAAAAAAAAAAAAAAAAAAAAAAAAAAAAAAAAAAAAAAAAAAAAAAAAAAAAAAAAAAAAAAAAAAAAAAAAAAAAAAAAAAAAAAAAAAAAAAAAAAAAAAAAAAAAAAAAAAAAAAAAAAAAAAAAAAAAAAAAAAAAAAAAAAAAAAAAAAAAAAAAAAAAAAAAAAAAAAAAAAAAAAAAAAAAAAAAAAAAAAAAAAAAAAAAAAAAAAD87w0NAAAAsHRSTlMAETdfhq2+zNrm8awBL3Cy6bFvLg9jq+vqqmEOAkSi9PdNBBmIhxgfkfb5IyWf+pwJgPgM3t1LG7AaQ+dJ/f4FHcTCK+M47O88U137XPxSPSzu8OXkw4RHrk5M4AqFgcqkd8tpKGrRZhDQHpWTA169vH9KZUan9VsNYn6/uRft6DBoZ26vzmQ1gycmzdbZkPN5ePKSptgqbTbTUcCppUiKz5YSbJ4iJILhC0LHHFTimUvOM2UAAArlSURBVHja7dv5fxTlHcDxgQQwEDAgcqaYUI4QlSMWEgSCxSLKfUgEWiQCylGC9oDSUg0Wa2lBwYoI9NbSw177J3YJoIDwzOzOZp9sPp/3r/MMPPP6fpLszs4mSUlGjKyrHzV6zCMNYwsaUsY2PDJm9Lj6upEjSptodo3jJzzaFPsyla5p4qTHGis9/cmPT5ka+8KU3bTpM2ZWbvrN35j1ROwrUqlaprfOrsj4vzmnIfa1qDwNc+flHv/8tgWxL0Pla5/1ZK7xP/X0wtiXoHzaF5WfwOIlHbG3r/wWtj1T3vxbvxV766qMpcvKGH/nxNjbVuV0LS91/s+uiL1nVdLUlSWNf/aSVbF3rMrqbludff7PfTv2dlV5azqzzv/578TeqwZDw/hs81/7QuydanCsezHL/Fu99TdsdbyUPv/1G2LvUoNnw8bUn3/nP6xt2pzy99/PfYe5BVtC89+6Lfb+NNi2B94LPLcj9u40+F5+6P2A2Ttj703VsOZhTwrNib0zVUfPg+e/0vv/EKteedD8O33sF6PpQZ8OPxp7V6qeXV+f/+7Ye1I17bl//ot9/gvlu9+7L4C9sXek6nr13vk/1V7CuWP39bbVv6Yhpb6td38p39jtuPdp8aezntey68DBREPUwdd3tWSd5KK7T5yf8fsfbxw6HPsaFXb40JFss2w/etdZ3890yv7Win/rWJXXuGd/pnEe++qUeVkeAlo3qS/2pSmbxuNZbuq1fHU3KMuHAG/m/6KpqmbeWxlGOvfO6tnp3//uftUf/5rS/IPu1KHuuDPTH6Yu3fSj2BekUm1Mf2H/49tLT6Qt3LA511YUxe7UAnpvLZx5Mu33/+Oxr0Xl+Ena5/snTw2s+2laKEtiX4nK87O0ydYNLJuSsuq0r/9qVPPPU0Z7YmBVynvGbb7/q1lvvxOebf/NO3tnUip5N/ZVqHy/SBnu1uKaCeElY5pjX4TK15xyV/hskvoo2J7cm1BEe8LTfa+4pCm44oif/9S0xl8Gx7siSUaEE/EWYI17Pzzfw8na4PEWP/+vcTPDn/T+KqkLHh8Ve//Ka1RwwOuT+uBx3wPWvAPBAZ9LxgWP/zr29pXXb4IDnp6cDh0eG3v3ym97aMI7k/Ohw/tib1757QtN+ELyQehwb+zNK7/e0IT7k+DjYB/G3rzyawv/kb8YOnwu9uaVX09owh1J8KmRS7E3r/wuhSbcnYSOFj6KvXnl91FwxAYw7BkAnAHAGQCcAcAZAJwBwBkAnAHAGQCcAcAZAJwBwBkAnAHAGQCcAcAZAJwBwBkAnAHAGQCcAcAZAJwBwBkAnAHAGQCcAcAZAJwBwBkAnAHAGQCcAcAZAJwBwBkAnAHAGQCcAcAZAJwBwBkAnAHAGQCcAcAZAJwBwBkAnAHAGQCcAcAZAJwBwBkAnAHAGQCcAcAZAJwBwBkAnAHAGQCcAcAZAJwBwBkAnAHAGQCcAcAZAJwBwBkAnAHAGQCcAcAZAJwBwBkAnAHAGQCcAcAZAJwBwBkAnAHAGQCcAcAZAJwBwBkAnAHAGQCcAcAZAJwBwBkAnAHAGQCcAcAZAJwBwBkAnAHAGQCcAcAZAJwBwBkAnAHAGQCcAcAZAJwBwBkAnAHAGQCcAcAZAJwBwBkAnAHAGQCcAcAZAJwBwBkAnAHAGQCcAcAZAJwBwBkAnAHAGQCcAcAZAJwBwBkAnAHAGQCcAcAZAJwBwBkAnAHAGQCcAcAZAJwBwBkAnAHAGQCcAcAZAJwBwBkAnAHAGQCcAcAZAJwBwBkAnAHAGQCcAcAZAJwBwBkAnAHAGQCcAcAZAJwBwBkAnAHAGQCcAcAZAJwBwBkAnAHAGQCcAcAZAJwBwBkAnAHAGQCcAcAZAJwBwBkAnAHAGQCcAcAZAJwBwBkAnAHAGQCcAcAZAJwBwBkAnAHAGQCcAcAZAJwBwBkAnAHAGQCcAcAZAJwBwBkAnAHAGQCcAcAZAJwBwBkAnAHAGQCcAcAZAJwBwBkAnAHAGQCcAcAZAJwBwBkAnAHAGQCcAcAZAJwBwBkAnAHAGQCcAcAZAJwBwBkAnAHAGQCcAcAZAJwBwBkAnAHAGQCcAcAZAJwBwBkAnAHAGQCcAcAZAJwBwBkAnAHAGQCcAcAZAJwBwBkAnAHAGQCcAcAZAJwBwBkAnAHAGQCcAcAZAJwBwBkAnAHAGQCcAcAZAJwBwBkAnAHAGQCcAcAZAJwBwBkAnAHAGQCcAcAZAJwBwBkAnAHAGQCcAcAZAJwBwBkAnAHAGQCcAcAZAJwBwBkAnAHAGQCcAcAZAJwBwBkAnAHAGQCcAcAZAJwBwBkAnAHAGQCcAcAZAJwBwBkAnAHAGQCcAcAZAJwBwBkAnAHAGQCcAcAZAJwBwBkAnAHAGQCcAcAZAJwBwBkAnAHAGQCcAcAZAJwBwBkAnAHAGQCcAcAZAJwBwBkAnAHAGQCcAcAZAJwBwBkAnAHAGQCcAcAZAJwBwBkAnAHAGQCcAcAZAJwBwBkAnAHAGQCcAcAZAJwBwBkAnAHAGQCcAcAZAJwBwBkAnAHAGQCcAcAZAJwBwKUEsCp09FLszSu/S6EJr0ouhg6fi7155bc3NOHfJg2hwx/G3rzy+zg04R3JB6HDvbE3r/wuhyb8SXI+dHhf7M0rv+CE9yenQ4fHxt68cmsMvsobnYwLHS4cjL195XUlOOApSX3w+IHY21denwYH3JPUBY/vir195TUxOODjydrg8ZbDsfevfEZ0BAd8NTkcPF44FPsClM+B8HyLP+D9wQVvNMa+AuXReC043v4k7W9EYXfsS1Ae18PT7SoumRBecr4v9jWofH1HwtOdUFwzPryk8Hrsi1D5Pk0Z7mPFNY3TwmvWLY99FSrX8nXh2U4beIU3PaWS3/lHoEY1v5Uy2t8PLJuRssqnAmpVT9pkZwwsm3kyZVn3+7GvROVY350y2JbJtxb+IS2UTS/FvhaVbvOGtLmeuL3yj2kLC5u8IVhzjqfOv7Dy9tK+htSl3T2+EqwpfT1pv/8LhRWz76yem7q2UDjtu8Easvx0hpH+6cvlby/IsHz7JH8J1Ijm4y9kGGjHXT/SxzKsLxT+fN1PhmpA4/Ujmcb5l7vOOdqe6ZTCtQOfxb48hX327rVss1w4/+7TFmU7qfh7Y+LnV2Jfox7myucTO7JO8q/3nHkj83lFF8dc/rj+NQ0p9ccuj7lYwhA7/nZvO38v4VwNA/ff31+8NPaOVE3/+Of9fz5eib0lVVPr119AvBd7T6qerge8glzeFHtXqpZpnQ96D/HFptj7UnV0tyYPtDf/P61aUP+Q2wh9b8bemarhX6sfdiOp8+XYe9Pg2/Hvh99KfP6d2LvTYNt+JnQzeeQTsfenwdWyJfxxwrL0B4lUw9If79xoAcPYprq0+SfJnrSnxFWzOv6TPv/i64CpsfepwbFuS5b5J8mV/8beqQZDw5ls80+SzjWx96rKW9OZdf5J0rdkVf7/UENJd9vq7PMv+mJF7B2rkqauLGn8Rct3xd6zKqerhF//X3r2k9jbVmUsXVbG+IsWL2mJvXXlt7DtmfLmX3RjUcZvjGioal90o+zx33S0zRuDNax91pO5xn/TvLk7Yl+GytMwZ17u8d/U/OL/SvnOiYaElumts/PP/o5TdSf68+9J1dJ/4vipyk3/lsatZ7u8O1QDVnSd3Tpo3+OffHV9z5SdF5q2+dTAELNhW9OFnVN61l+dXNpE/w97R8WO1gBDAgAAAABJRU5ErkJggg==;" parent="cMTnH-UVxewZ_KafLdWO-36" vertex="1">
          <mxGeometry x="76" y="30.5" width="47" height="47" as="geometry" />
        </mxCell>
        <mxCell id="cMTnH-UVxewZ_KafLdWO-30" value="" style="shape=image;verticalLabelPosition=bottom;labelBackgroundColor=default;verticalAlign=top;aspect=fixed;imageAspect=0;image=data:image/png,iVBORw0KGgoAAAANSUhEUgAAAgAAAAIACAMAAADDpiTIAAACE1BMVEUAAAAAAAAAAAAAAAAAAAAAAAAAAAAAAAAAAAAAAAAAAAAAAAAAAAAAAAAAAAAAAAAAAAAAAAAAAAAAAAAAAAAAAAAAAAAAAAAAAAAAAAAAAAAAAAAAAAAAAAAAAAAAAAAAAAAAAAAAAAAAAAAAAAAAAAAAAAAAAAAAAAAAAAAAAAAAAAAAAAAAAAAAAAAAAAAAAAAAAAAAAAAAAAAAAAAAAAAAAAAAAAAAAAAAAAAAAAAAAAAAAAAAAAAAAAAAAAAAAAAAAAAAAAAAAAAAAAAAAAAAAAAAAAAAAAAAAAAAAAAAAAAAAAAAAAAAAAAAAAAAAAAAAAAAAAAAAAAAAAAAAAAAAAAAAAAAAAAAAAAAAAAAAAAAAAAAAAAAAAAAAAAAAAAAAAAAAAAAAAAAAAAAAAAAAAAAAAAAAAAAAAAAAAAAAAAAAAAAAAAAAAAAAAAAAAAAAAAAAAAAAAAAAAAAAAAAAAAAAAAAAAAAAAAAAAAAAAAAAAAAAAAAAAAAAAAAAAAAAAAAAAAAAAAAAAAAAAAAAAAAAAAAAAAAAAAAAAAAAAAAAAAAAAAAAAAAAAAAAAAAAAAAAAAAAAAAAAAAAAAAAAAAAAAAAAAAAAAAAAAAAAAAAAAAAAAAAAAAAAAAAAAAAAAAAAAAAAAAAAAAAAAAAAAAAAAAAAAAAAAAAAAAAAAAAAAAAAAAAAAAAAAAAAD87w0NAAAAsHRSTlMAETdfhq2+zNrm8awBL3Cy6bFvLg9jq+vqqmEOAkSi9PdNBBmIhxgfkfb5IyWf+pwJgPgM3t1LG7AaQ+dJ/f4FHcTCK+M47O88U137XPxSPSzu8OXkw4RHrk5M4AqFgcqkd8tpKGrRZhDQHpWTA169vH9KZUan9VsNYn6/uRft6DBoZ26vzmQ1gycmzdbZkPN5ePKSptgqbTbTUcCppUiKz5YSbJ4iJILhC0LHHFTimUvOM2UAAArlSURBVHja7dv5fxTlHcDxgQQwEDAgcqaYUI4QlSMWEgSCxSLKfUgEWiQCylGC9oDSUg0Wa2lBwYoI9NbSw177J3YJoIDwzOzOZp9sPp/3r/MMPPP6fpLszs4mSUlGjKyrHzV6zCMNYwsaUsY2PDJm9Lj6upEjSptodo3jJzzaFPsyla5p4qTHGis9/cmPT5ka+8KU3bTpM2ZWbvrN35j1ROwrUqlaprfOrsj4vzmnIfa1qDwNc+flHv/8tgWxL0Pla5/1ZK7xP/X0wtiXoHzaF5WfwOIlHbG3r/wWtj1T3vxbvxV766qMpcvKGH/nxNjbVuV0LS91/s+uiL1nVdLUlSWNf/aSVbF3rMrqbludff7PfTv2dlV5azqzzv/578TeqwZDw/hs81/7QuydanCsezHL/Fu99TdsdbyUPv/1G2LvUoNnw8bUn3/nP6xt2pzy99/PfYe5BVtC89+6Lfb+NNi2B94LPLcj9u40+F5+6P2A2Ttj703VsOZhTwrNib0zVUfPg+e/0vv/EKteedD8O33sF6PpQZ8OPxp7V6qeXV+f/+7Ye1I17bl//ot9/gvlu9+7L4C9sXek6nr13vk/1V7CuWP39bbVv6Yhpb6td38p39jtuPdp8aezntey68DBREPUwdd3tWSd5KK7T5yf8fsfbxw6HPsaFXb40JFss2w/etdZ3890yv7Win/rWJXXuGd/pnEe++qUeVkeAlo3qS/2pSmbxuNZbuq1fHU3KMuHAG/m/6KpqmbeWxlGOvfO6tnp3//uftUf/5rS/IPu1KHuuDPTH6Yu3fSj2BekUm1Mf2H/49tLT6Qt3LA511YUxe7UAnpvLZx5Mu33/+Oxr0Xl+Ena5/snTw2s+2laKEtiX4nK87O0ydYNLJuSsuq0r/9qVPPPU0Z7YmBVynvGbb7/q1lvvxOebf/NO3tnUip5N/ZVqHy/SBnu1uKaCeElY5pjX4TK15xyV/hskvoo2J7cm1BEe8LTfa+4pCm44oif/9S0xl8Gx7siSUaEE/EWYI17Pzzfw8na4PEWP/+vcTPDn/T+KqkLHh8Ve//Ka1RwwOuT+uBx3wPWvAPBAZ9LxgWP/zr29pXXb4IDnp6cDh0eG3v3ym97aMI7k/Ohw/tib1757QtN+ELyQehwb+zNK7/e0IT7k+DjYB/G3rzyawv/kb8YOnwu9uaVX09owh1J8KmRS7E3r/wuhSbcnYSOFj6KvXnl91FwxAYw7BkAnAHAGQCcAcAZAJwBwBkAnAHAGQCcAcAZAJwBwBkAnAHAGQCcAcAZAJwBwBkAnAHAGQCcAcAZAJwBwBkAnAHAGQCcAcAZAJwBwBkAnAHAGQCcAcAZAJwBwBkAnAHAGQCcAcAZAJwBwBkAnAHAGQCcAcAZAJwBwBkAnAHAGQCcAcAZAJwBwBkAnAHAGQCcAcAZAJwBwBkAnAHAGQCcAcAZAJwBwBkAnAHAGQCcAcAZAJwBwBkAnAHAGQCcAcAZAJwBwBkAnAHAGQCcAcAZAJwBwBkAnAHAGQCcAcAZAJwBwBkAnAHAGQCcAcAZAJwBwBkAnAHAGQCcAcAZAJwBwBkAnAHAGQCcAcAZAJwBwBkAnAHAGQCcAcAZAJwBwBkAnAHAGQCcAcAZAJwBwBkAnAHAGQCcAcAZAJwBwBkAnAHAGQCcAcAZAJwBwBkAnAHAGQCcAcAZAJwBwBkAnAHAGQCcAcAZAJwBwBkAnAHAGQCcAcAZAJwBwBkAnAHAGQCcAcAZAJwBwBkAnAHAGQCcAcAZAJwBwBkAnAHAGQCcAcAZAJwBwBkAnAHAGQCcAcAZAJwBwBkAnAHAGQCcAcAZAJwBwBkAnAHAGQCcAcAZAJwBwBkAnAHAGQCcAcAZAJwBwBkAnAHAGQCcAcAZAJwBwBkAnAHAGQCcAcAZAJwBwBkAnAHAGQCcAcAZAJwBwBkAnAHAGQCcAcAZAJwBwBkAnAHAGQCcAcAZAJwBwBkAnAHAGQCcAcAZAJwBwBkAnAHAGQCcAcAZAJwBwBkAnAHAGQCcAcAZAJwBwBkAnAHAGQCcAcAZAJwBwBkAnAHAGQCcAcAZAJwBwBkAnAHAGQCcAcAZAJwBwBkAnAHAGQCcAcAZAJwBwBkAnAHAGQCcAcAZAJwBwBkAnAHAGQCcAcAZAJwBwBkAnAHAGQCcAcAZAJwBwBkAnAHAGQCcAcAZAJwBwBkAnAHAGQCcAcAZAJwBwBkAnAHAGQCcAcAZAJwBwBkAnAHAGQCcAcAZAJwBwBkAnAHAGQCcAcAZAJwBwBkAnAHAGQCcAcAZAJwBwBkAnAHAGQCcAcAZAJwBwBkAnAHAGQCcAcAZAJwBwBkAnAHAGQCcAcAZAJwBwBkAnAHAGQCcAcAZAJwBwBkAnAHAGQCcAcAZAJwBwBkAnAHAGQCcAcAZAJwBwBkAnAHAGQCcAcAZAJwBwBkAnAHAGQCcAcAZAJwBwBkAnAHAGQCcAcAZAJwBwBkAnAHAGQCcAcAZAJwBwBkAnAHAGQCcAcAZAJwBwBkAnAHAGQCcAcAZAJwBwBkAnAHAGQCcAcAZAJwBwKUEsCp09FLszSu/S6EJr0ouhg6fi7155bc3NOHfJg2hwx/G3rzy+zg04R3JB6HDvbE3r/wuhyb8SXI+dHhf7M0rv+CE9yenQ4fHxt68cmsMvsobnYwLHS4cjL195XUlOOApSX3w+IHY21denwYH3JPUBY/vir195TUxOODjydrg8ZbDsfevfEZ0BAd8NTkcPF44FPsClM+B8HyLP+D9wQVvNMa+AuXReC043v4k7W9EYXfsS1Ae18PT7SoumRBecr4v9jWofH1HwtOdUFwzPryk8Hrsi1D5Pk0Z7mPFNY3TwmvWLY99FSrX8nXh2U4beIU3PaWS3/lHoEY1v5Uy2t8PLJuRssqnAmpVT9pkZwwsm3kyZVn3+7GvROVY350y2JbJtxb+IS2UTS/FvhaVbvOGtLmeuL3yj2kLC5u8IVhzjqfOv7Dy9tK+htSl3T2+EqwpfT1pv/8LhRWz76yem7q2UDjtu8Easvx0hpH+6cvlby/IsHz7JH8J1Ijm4y9kGGjHXT/SxzKsLxT+fN1PhmpA4/Ujmcb5l7vOOdqe6ZTCtQOfxb48hX327rVss1w4/+7TFmU7qfh7Y+LnV2Jfox7myucTO7JO8q/3nHkj83lFF8dc/rj+NQ0p9ccuj7lYwhA7/nZvO38v4VwNA/ff31+8NPaOVE3/+Of9fz5eib0lVVPr119AvBd7T6qerge8glzeFHtXqpZpnQ96D/HFptj7UnV0tyYPtDf/P61aUP+Q2wh9b8bemarhX6sfdiOp8+XYe9Pg2/Hvh99KfP6d2LvTYNt+JnQzeeQTsfenwdWyJfxxwrL0B4lUw9If79xoAcPYprq0+SfJnrSnxFWzOv6TPv/i64CpsfepwbFuS5b5J8mV/8beqQZDw5ls80+SzjWx96rKW9OZdf5J0rdkVf7/UENJd9vq7PMv+mJF7B2rkqauLGn8Rct3xd6zKqerhF//X3r2k9jbVmUsXVbG+IsWL2mJvXXlt7DtmfLmX3RjUcZvjGioal90o+zx33S0zRuDNax91pO5xn/TvLk7Yl+GytMwZ17u8d/U/OL/SvnOiYaElumts/PP/o5TdSf68+9J1dJ/4vipyk3/lsatZ7u8O1QDVnSd3Tpo3+OffHV9z5SdF5q2+dTAELNhW9OFnVN61l+dXNpE/w97R8WO1gBDAgAAAABJRU5ErkJggg==;" parent="cMTnH-UVxewZ_KafLdWO-36" vertex="1">
          <mxGeometry x="124" y="30.5" width="47" height="47" as="geometry" />
        </mxCell>
        <mxCell id="cMTnH-UVxewZ_KafLdWO-31" value="" style="shape=image;verticalLabelPosition=bottom;labelBackgroundColor=default;verticalAlign=top;aspect=fixed;imageAspect=0;image=data:image/png,iVBORw0KGgoAAAANSUhEUgAAAgAAAAIACAMAAADDpiTIAAACE1BMVEUAAAAAAAAAAAAAAAAAAAAAAAAAAAAAAAAAAAAAAAAAAAAAAAAAAAAAAAAAAAAAAAAAAAAAAAAAAAAAAAAAAAAAAAAAAAAAAAAAAAAAAAAAAAAAAAAAAAAAAAAAAAAAAAAAAAAAAAAAAAAAAAAAAAAAAAAAAAAAAAAAAAAAAAAAAAAAAAAAAAAAAAAAAAAAAAAAAAAAAAAAAAAAAAAAAAAAAAAAAAAAAAAAAAAAAAAAAAAAAAAAAAAAAAAAAAAAAAAAAAAAAAAAAAAAAAAAAAAAAAAAAAAAAAAAAAAAAAAAAAAAAAAAAAAAAAAAAAAAAAAAAAAAAAAAAAAAAAAAAAAAAAAAAAAAAAAAAAAAAAAAAAAAAAAAAAAAAAAAAAAAAAAAAAAAAAAAAAAAAAAAAAAAAAAAAAAAAAAAAAAAAAAAAAAAAAAAAAAAAAAAAAAAAAAAAAAAAAAAAAAAAAAAAAAAAAAAAAAAAAAAAAAAAAAAAAAAAAAAAAAAAAAAAAAAAAAAAAAAAAAAAAAAAAAAAAAAAAAAAAAAAAAAAAAAAAAAAAAAAAAAAAAAAAAAAAAAAAAAAAAAAAAAAAAAAAAAAAAAAAAAAAAAAAAAAAAAAAAAAAAAAAAAAAAAAAAAAAAAAAAAAAAAAAAAAAAAAAAAAAAAAAAAAAAAAAAAAAAAAAAAAAAAAAAAAAAAAAAAAAAAAAAAAAD87w0NAAAAsHRSTlMAETdfhq2+zNrm8awBL3Cy6bFvLg9jq+vqqmEOAkSi9PdNBBmIhxgfkfb5IyWf+pwJgPgM3t1LG7AaQ+dJ/f4FHcTCK+M47O88U137XPxSPSzu8OXkw4RHrk5M4AqFgcqkd8tpKGrRZhDQHpWTA169vH9KZUan9VsNYn6/uRft6DBoZ26vzmQ1gycmzdbZkPN5ePKSptgqbTbTUcCppUiKz5YSbJ4iJILhC0LHHFTimUvOM2UAAArlSURBVHja7dv5fxTlHcDxgQQwEDAgcqaYUI4QlSMWEgSCxSLKfUgEWiQCylGC9oDSUg0Wa2lBwYoI9NbSw177J3YJoIDwzOzOZp9sPp/3r/MMPPP6fpLszs4mSUlGjKyrHzV6zCMNYwsaUsY2PDJm9Lj6upEjSptodo3jJzzaFPsyla5p4qTHGis9/cmPT5ka+8KU3bTpM2ZWbvrN35j1ROwrUqlaprfOrsj4vzmnIfa1qDwNc+flHv/8tgWxL0Pla5/1ZK7xP/X0wtiXoHzaF5WfwOIlHbG3r/wWtj1T3vxbvxV766qMpcvKGH/nxNjbVuV0LS91/s+uiL1nVdLUlSWNf/aSVbF3rMrqbludff7PfTv2dlV5azqzzv/578TeqwZDw/hs81/7QuydanCsezHL/Fu99TdsdbyUPv/1G2LvUoNnw8bUn3/nP6xt2pzy99/PfYe5BVtC89+6Lfb+NNi2B94LPLcj9u40+F5+6P2A2Ttj703VsOZhTwrNib0zVUfPg+e/0vv/EKteedD8O33sF6PpQZ8OPxp7V6qeXV+f/+7Ye1I17bl//ot9/gvlu9+7L4C9sXek6nr13vk/1V7CuWP39bbVv6Yhpb6td38p39jtuPdp8aezntey68DBREPUwdd3tWSd5KK7T5yf8fsfbxw6HPsaFXb40JFss2w/etdZ3890yv7Win/rWJXXuGd/pnEe++qUeVkeAlo3qS/2pSmbxuNZbuq1fHU3KMuHAG/m/6KpqmbeWxlGOvfO6tnp3//uftUf/5rS/IPu1KHuuDPTH6Yu3fSj2BekUm1Mf2H/49tLT6Qt3LA511YUxe7UAnpvLZx5Mu33/+Oxr0Xl+Ena5/snTw2s+2laKEtiX4nK87O0ydYNLJuSsuq0r/9qVPPPU0Z7YmBVynvGbb7/q1lvvxOebf/NO3tnUip5N/ZVqHy/SBnu1uKaCeElY5pjX4TK15xyV/hskvoo2J7cm1BEe8LTfa+4pCm44oif/9S0xl8Gx7siSUaEE/EWYI17Pzzfw8na4PEWP/+vcTPDn/T+KqkLHh8Ve//Ka1RwwOuT+uBx3wPWvAPBAZ9LxgWP/zr29pXXb4IDnp6cDh0eG3v3ym97aMI7k/Ohw/tib1757QtN+ELyQehwb+zNK7/e0IT7k+DjYB/G3rzyawv/kb8YOnwu9uaVX09owh1J8KmRS7E3r/wuhSbcnYSOFj6KvXnl91FwxAYw7BkAnAHAGQCcAcAZAJwBwBkAnAHAGQCcAcAZAJwBwBkAnAHAGQCcAcAZAJwBwBkAnAHAGQCcAcAZAJwBwBkAnAHAGQCcAcAZAJwBwBkAnAHAGQCcAcAZAJwBwBkAnAHAGQCcAcAZAJwBwBkAnAHAGQCcAcAZAJwBwBkAnAHAGQCcAcAZAJwBwBkAnAHAGQCcAcAZAJwBwBkAnAHAGQCcAcAZAJwBwBkAnAHAGQCcAcAZAJwBwBkAnAHAGQCcAcAZAJwBwBkAnAHAGQCcAcAZAJwBwBkAnAHAGQCcAcAZAJwBwBkAnAHAGQCcAcAZAJwBwBkAnAHAGQCcAcAZAJwBwBkAnAHAGQCcAcAZAJwBwBkAnAHAGQCcAcAZAJwBwBkAnAHAGQCcAcAZAJwBwBkAnAHAGQCcAcAZAJwBwBkAnAHAGQCcAcAZAJwBwBkAnAHAGQCcAcAZAJwBwBkAnAHAGQCcAcAZAJwBwBkAnAHAGQCcAcAZAJwBwBkAnAHAGQCcAcAZAJwBwBkAnAHAGQCcAcAZAJwBwBkAnAHAGQCcAcAZAJwBwBkAnAHAGQCcAcAZAJwBwBkAnAHAGQCcAcAZAJwBwBkAnAHAGQCcAcAZAJwBwBkAnAHAGQCcAcAZAJwBwBkAnAHAGQCcAcAZAJwBwBkAnAHAGQCcAcAZAJwBwBkAnAHAGQCcAcAZAJwBwBkAnAHAGQCcAcAZAJwBwBkAnAHAGQCcAcAZAJwBwBkAnAHAGQCcAcAZAJwBwBkAnAHAGQCcAcAZAJwBwBkAnAHAGQCcAcAZAJwBwBkAnAHAGQCcAcAZAJwBwBkAnAHAGQCcAcAZAJwBwBkAnAHAGQCcAcAZAJwBwBkAnAHAGQCcAcAZAJwBwBkAnAHAGQCcAcAZAJwBwBkAnAHAGQCcAcAZAJwBwBkAnAHAGQCcAcAZAJwBwBkAnAHAGQCcAcAZAJwBwBkAnAHAGQCcAcAZAJwBwBkAnAHAGQCcAcAZAJwBwBkAnAHAGQCcAcAZAJwBwBkAnAHAGQCcAcAZAJwBwBkAnAHAGQCcAcAZAJwBwBkAnAHAGQCcAcAZAJwBwBkAnAHAGQCcAcAZAJwBwBkAnAHAGQCcAcAZAJwBwBkAnAHAGQCcAcAZAJwBwBkAnAHAGQCcAcAZAJwBwBkAnAHAGQCcAcAZAJwBwBkAnAHAGQCcAcAZAJwBwBkAnAHAGQCcAcAZAJwBwBkAnAHAGQCcAcAZAJwBwBkAnAHAGQCcAcAZAJwBwBkAnAHAGQCcAcAZAJwBwBkAnAHAGQCcAcAZAJwBwBkAnAHAGQCcAcAZAJwBwKUEsCp09FLszSu/S6EJr0ouhg6fi7155bc3NOHfJg2hwx/G3rzy+zg04R3JB6HDvbE3r/wuhyb8SXI+dHhf7M0rv+CE9yenQ4fHxt68cmsMvsobnYwLHS4cjL195XUlOOApSX3w+IHY21denwYH3JPUBY/vir195TUxOODjydrg8ZbDsfevfEZ0BAd8NTkcPF44FPsClM+B8HyLP+D9wQVvNMa+AuXReC043v4k7W9EYXfsS1Ae18PT7SoumRBecr4v9jWofH1HwtOdUFwzPryk8Hrsi1D5Pk0Z7mPFNY3TwmvWLY99FSrX8nXh2U4beIU3PaWS3/lHoEY1v5Uy2t8PLJuRssqnAmpVT9pkZwwsm3kyZVn3+7GvROVY350y2JbJtxb+IS2UTS/FvhaVbvOGtLmeuL3yj2kLC5u8IVhzjqfOv7Dy9tK+htSl3T2+EqwpfT1pv/8LhRWz76yem7q2UDjtu8Easvx0hpH+6cvlby/IsHz7JH8J1Ijm4y9kGGjHXT/SxzKsLxT+fN1PhmpA4/Ujmcb5l7vOOdqe6ZTCtQOfxb48hX327rVss1w4/+7TFmU7qfh7Y+LnV2Jfox7myucTO7JO8q/3nHkj83lFF8dc/rj+NQ0p9ccuj7lYwhA7/nZvO38v4VwNA/ff31+8NPaOVE3/+Of9fz5eib0lVVPr119AvBd7T6qerge8glzeFHtXqpZpnQ96D/HFptj7UnV0tyYPtDf/P61aUP+Q2wh9b8bemarhX6sfdiOp8+XYe9Pg2/Hvh99KfP6d2LvTYNt+JnQzeeQTsfenwdWyJfxxwrL0B4lUw9If79xoAcPYprq0+SfJnrSnxFWzOv6TPv/i64CpsfepwbFuS5b5J8mV/8beqQZDw5ls80+SzjWx96rKW9OZdf5J0rdkVf7/UENJd9vq7PMv+mJF7B2rkqauLGn8Rct3xd6zKqerhF//X3r2k9jbVmUsXVbG+IsWL2mJvXXlt7DtmfLmX3RjUcZvjGioal90o+zx33S0zRuDNax91pO5xn/TvLk7Yl+GytMwZ17u8d/U/OL/SvnOiYaElumts/PP/o5TdSf68+9J1dJ/4vipyk3/lsatZ7u8O1QDVnSd3Tpo3+OffHV9z5SdF5q2+dTAELNhW9OFnVN61l+dXNpE/w97R8WO1gBDAgAAAABJRU5ErkJggg==;" parent="cMTnH-UVxewZ_KafLdWO-36" vertex="1">
          <mxGeometry x="172" y="30.5" width="47" height="47" as="geometry" />
        </mxCell>
        <mxCell id="cMTnH-UVxewZ_KafLdWO-34" value="" style="shape=image;verticalLabelPosition=bottom;labelBackgroundColor=default;verticalAlign=top;aspect=fixed;imageAspect=0;image=data:image/png,iVBORw0KGgoAAAANSUhEUgAAAgAAAAIACAMAAADDpiTIAAACE1BMVEUAAAAAAAAAAAAAAAAAAAAAAAAAAAAAAAAAAAAAAAAAAAAAAAAAAAAAAAAAAAAAAAAAAAAAAAAAAAAAAAAAAAAAAAAAAAAAAAAAAAAAAAAAAAAAAAAAAAAAAAAAAAAAAAAAAAAAAAAAAAAAAAAAAAAAAAAAAAAAAAAAAAAAAAAAAAAAAAAAAAAAAAAAAAAAAAAAAAAAAAAAAAAAAAAAAAAAAAAAAAAAAAAAAAAAAAAAAAAAAAAAAAAAAAAAAAAAAAAAAAAAAAAAAAAAAAAAAAAAAAAAAAAAAAAAAAAAAAAAAAAAAAAAAAAAAAAAAAAAAAAAAAAAAAAAAAAAAAAAAAAAAAAAAAAAAAAAAAAAAAAAAAAAAAAAAAAAAAAAAAAAAAAAAAAAAAAAAAAAAAAAAAAAAAAAAAAAAAAAAAAAAAAAAAAAAAAAAAAAAAAAAAAAAAAAAAAAAAAAAAAAAAAAAAAAAAAAAAAAAAAAAAAAAAAAAAAAAAAAAAAAAAAAAAAAAAAAAAAAAAAAAAAAAAAAAAAAAAAAAAAAAAAAAAAAAAAAAAAAAAAAAAAAAAAAAAAAAAAAAAAAAAAAAAAAAAAAAAAAAAAAAAAAAAAAAAAAAAAAAAAAAAAAAAAAAAAAAAAAAAAAAAAAAAAAAAAAAAAAAAAAAAAAAAAAAAAAAAAAAAAAAAAAAAAAAAAAAAAAAAAAAAAAAAD87w0NAAAAsHRSTlMAETdfhq2+zNrm8awBL3Cy6bFvLg9jq+vqqmEOAkSi9PdNBBmIhxgfkfb5IyWf+pwJgPgM3t1LG7AaQ+dJ/f4FHcTCK+M47O88U137XPxSPSzu8OXkw4RHrk5M4AqFgcqkd8tpKGrRZhDQHpWTA169vH9KZUan9VsNYn6/uRft6DBoZ26vzmQ1gycmzdbZkPN5ePKSptgqbTbTUcCppUiKz5YSbJ4iJILhC0LHHFTimUvOM2UAAArlSURBVHja7dv5fxTlHcDxgQQwEDAgcqaYUI4QlSMWEgSCxSLKfUgEWiQCylGC9oDSUg0Wa2lBwYoI9NbSw177J3YJoIDwzOzOZp9sPp/3r/MMPPP6fpLszs4mSUlGjKyrHzV6zCMNYwsaUsY2PDJm9Lj6upEjSptodo3jJzzaFPsyla5p4qTHGis9/cmPT5ka+8KU3bTpM2ZWbvrN35j1ROwrUqlaprfOrsj4vzmnIfa1qDwNc+flHv/8tgWxL0Pla5/1ZK7xP/X0wtiXoHzaF5WfwOIlHbG3r/wWtj1T3vxbvxV766qMpcvKGH/nxNjbVuV0LS91/s+uiL1nVdLUlSWNf/aSVbF3rMrqbludff7PfTv2dlV5azqzzv/578TeqwZDw/hs81/7QuydanCsezHL/Fu99TdsdbyUPv/1G2LvUoNnw8bUn3/nP6xt2pzy99/PfYe5BVtC89+6Lfb+NNi2B94LPLcj9u40+F5+6P2A2Ttj703VsOZhTwrNib0zVUfPg+e/0vv/EKteedD8O33sF6PpQZ8OPxp7V6qeXV+f/+7Ye1I17bl//ot9/gvlu9+7L4C9sXek6nr13vk/1V7CuWP39bbVv6Yhpb6td38p39jtuPdp8aezntey68DBREPUwdd3tWSd5KK7T5yf8fsfbxw6HPsaFXb40JFss2w/etdZ3890yv7Win/rWJXXuGd/pnEe++qUeVkeAlo3qS/2pSmbxuNZbuq1fHU3KMuHAG/m/6KpqmbeWxlGOvfO6tnp3//uftUf/5rS/IPu1KHuuDPTH6Yu3fSj2BekUm1Mf2H/49tLT6Qt3LA511YUxe7UAnpvLZx5Mu33/+Oxr0Xl+Ena5/snTw2s+2laKEtiX4nK87O0ydYNLJuSsuq0r/9qVPPPU0Z7YmBVynvGbb7/q1lvvxOebf/NO3tnUip5N/ZVqHy/SBnu1uKaCeElY5pjX4TK15xyV/hskvoo2J7cm1BEe8LTfa+4pCm44oif/9S0xl8Gx7siSUaEE/EWYI17Pzzfw8na4PEWP/+vcTPDn/T+KqkLHh8Ve//Ka1RwwOuT+uBx3wPWvAPBAZ9LxgWP/zr29pXXb4IDnp6cDh0eG3v3ym97aMI7k/Ohw/tib1757QtN+ELyQehwb+zNK7/e0IT7k+DjYB/G3rzyawv/kb8YOnwu9uaVX09owh1J8KmRS7E3r/wuhSbcnYSOFj6KvXnl91FwxAYw7BkAnAHAGQCcAcAZAJwBwBkAnAHAGQCcAcAZAJwBwBkAnAHAGQCcAcAZAJwBwBkAnAHAGQCcAcAZAJwBwBkAnAHAGQCcAcAZAJwBwBkAnAHAGQCcAcAZAJwBwBkAnAHAGQCcAcAZAJwBwBkAnAHAGQCcAcAZAJwBwBkAnAHAGQCcAcAZAJwBwBkAnAHAGQCcAcAZAJwBwBkAnAHAGQCcAcAZAJwBwBkAnAHAGQCcAcAZAJwBwBkAnAHAGQCcAcAZAJwBwBkAnAHAGQCcAcAZAJwBwBkAnAHAGQCcAcAZAJwBwBkAnAHAGQCcAcAZAJwBwBkAnAHAGQCcAcAZAJwBwBkAnAHAGQCcAcAZAJwBwBkAnAHAGQCcAcAZAJwBwBkAnAHAGQCcAcAZAJwBwBkAnAHAGQCcAcAZAJwBwBkAnAHAGQCcAcAZAJwBwBkAnAHAGQCcAcAZAJwBwBkAnAHAGQCcAcAZAJwBwBkAnAHAGQCcAcAZAJwBwBkAnAHAGQCcAcAZAJwBwBkAnAHAGQCcAcAZAJwBwBkAnAHAGQCcAcAZAJwBwBkAnAHAGQCcAcAZAJwBwBkAnAHAGQCcAcAZAJwBwBkAnAHAGQCcAcAZAJwBwBkAnAHAGQCcAcAZAJwBwBkAnAHAGQCcAcAZAJwBwBkAnAHAGQCcAcAZAJwBwBkAnAHAGQCcAcAZAJwBwBkAnAHAGQCcAcAZAJwBwBkAnAHAGQCcAcAZAJwBwBkAnAHAGQCcAcAZAJwBwBkAnAHAGQCcAcAZAJwBwBkAnAHAGQCcAcAZAJwBwBkAnAHAGQCcAcAZAJwBwBkAnAHAGQCcAcAZAJwBwBkAnAHAGQCcAcAZAJwBwBkAnAHAGQCcAcAZAJwBwBkAnAHAGQCcAcAZAJwBwBkAnAHAGQCcAcAZAJwBwBkAnAHAGQCcAcAZAJwBwBkAnAHAGQCcAcAZAJwBwBkAnAHAGQCcAcAZAJwBwBkAnAHAGQCcAcAZAJwBwBkAnAHAGQCcAcAZAJwBwBkAnAHAGQCcAcAZAJwBwBkAnAHAGQCcAcAZAJwBwBkAnAHAGQCcAcAZAJwBwBkAnAHAGQCcAcAZAJwBwBkAnAHAGQCcAcAZAJwBwBkAnAHAGQCcAcAZAJwBwBkAnAHAGQCcAcAZAJwBwBkAnAHAGQCcAcAZAJwBwBkAnAHAGQCcAcAZAJwBwBkAnAHAGQCcAcAZAJwBwBkAnAHAGQCcAcAZAJwBwBkAnAHAGQCcAcAZAJwBwBkAnAHAGQCcAcAZAJwBwBkAnAHAGQCcAcAZAJwBwBkAnAHAGQCcAcAZAJwBwKUEsCp09FLszSu/S6EJr0ouhg6fi7155bc3NOHfJg2hwx/G3rzy+zg04R3JB6HDvbE3r/wuhyb8SXI+dHhf7M0rv+CE9yenQ4fHxt68cmsMvsobnYwLHS4cjL195XUlOOApSX3w+IHY21denwYH3JPUBY/vir195TUxOODjydrg8ZbDsfevfEZ0BAd8NTkcPF44FPsClM+B8HyLP+D9wQVvNMa+AuXReC043v4k7W9EYXfsS1Ae18PT7SoumRBecr4v9jWofH1HwtOdUFwzPryk8Hrsi1D5Pk0Z7mPFNY3TwmvWLY99FSrX8nXh2U4beIU3PaWS3/lHoEY1v5Uy2t8PLJuRssqnAmpVT9pkZwwsm3kyZVn3+7GvROVY350y2JbJtxb+IS2UTS/FvhaVbvOGtLmeuL3yj2kLC5u8IVhzjqfOv7Dy9tK+htSl3T2+EqwpfT1pv/8LhRWz76yem7q2UDjtu8Easvx0hpH+6cvlby/IsHz7JH8J1Ijm4y9kGGjHXT/SxzKsLxT+fN1PhmpA4/Ujmcb5l7vOOdqe6ZTCtQOfxb48hX327rVss1w4/+7TFmU7qfh7Y+LnV2Jfox7myucTO7JO8q/3nHkj83lFF8dc/rj+NQ0p9ccuj7lYwhA7/nZvO38v4VwNA/ff31+8NPaOVE3/+Of9fz5eib0lVVPr119AvBd7T6qerge8glzeFHtXqpZpnQ96D/HFptj7UnV0tyYPtDf/P61aUP+Q2wh9b8bemarhX6sfdiOp8+XYe9Pg2/Hvh99KfP6d2LvTYNt+JnQzeeQTsfenwdWyJfxxwrL0B4lUw9If79xoAcPYprq0+SfJnrSnxFWzOv6TPv/i64CpsfepwbFuS5b5J8mV/8beqQZDw5ls80+SzjWx96rKW9OZdf5J0rdkVf7/UENJd9vq7PMv+mJF7B2rkqauLGn8Rct3xd6zKqerhF//X3r2k9jbVmUsXVbG+IsWL2mJvXXlt7DtmfLmX3RjUcZvjGioal90o+zx33S0zRuDNax91pO5xn/TvLk7Yl+GytMwZ17u8d/U/OL/SvnOiYaElumts/PP/o5TdSf68+9J1dJ/4vipyk3/lsatZ7u8O1QDVnSd3Tpo3+OffHV9z5SdF5q2+dTAELNhW9OFnVN61l+dXNpE/w97R8WO1gBDAgAAAABJRU5ErkJggg==;" parent="cMTnH-UVxewZ_KafLdWO-36" vertex="1">
          <mxGeometry x="268" y="30.5" width="47" height="47" as="geometry" />
        </mxCell>
        <mxCell id="FQLjCHzrVEqeMGWYMrkH-11" value="" style="group" vertex="1" connectable="0" parent="cMTnH-UVxewZ_KafLdWO-36">
          <mxGeometry x="220" y="25" width="149" height="58" as="geometry" />
        </mxCell>
        <mxCell id="cMTnH-UVxewZ_KafLdWO-33" value="" style="shape=image;verticalLabelPosition=bottom;labelBackgroundColor=default;verticalAlign=top;aspect=fixed;imageAspect=0;image=data:image/png,iVBORw0KGgoAAAANSUhEUgAAAgAAAAIACAMAAADDpiTIAAACE1BMVEUAAAAAAAAAAAAAAAAAAAAAAAAAAAAAAAAAAAAAAAAAAAAAAAAAAAAAAAAAAAAAAAAAAAAAAAAAAAAAAAAAAAAAAAAAAAAAAAAAAAAAAAAAAAAAAAAAAAAAAAAAAAAAAAAAAAAAAAAAAAAAAAAAAAAAAAAAAAAAAAAAAAAAAAAAAAAAAAAAAAAAAAAAAAAAAAAAAAAAAAAAAAAAAAAAAAAAAAAAAAAAAAAAAAAAAAAAAAAAAAAAAAAAAAAAAAAAAAAAAAAAAAAAAAAAAAAAAAAAAAAAAAAAAAAAAAAAAAAAAAAAAAAAAAAAAAAAAAAAAAAAAAAAAAAAAAAAAAAAAAAAAAAAAAAAAAAAAAAAAAAAAAAAAAAAAAAAAAAAAAAAAAAAAAAAAAAAAAAAAAAAAAAAAAAAAAAAAAAAAAAAAAAAAAAAAAAAAAAAAAAAAAAAAAAAAAAAAAAAAAAAAAAAAAAAAAAAAAAAAAAAAAAAAAAAAAAAAAAAAAAAAAAAAAAAAAAAAAAAAAAAAAAAAAAAAAAAAAAAAAAAAAAAAAAAAAAAAAAAAAAAAAAAAAAAAAAAAAAAAAAAAAAAAAAAAAAAAAAAAAAAAAAAAAAAAAAAAAAAAAAAAAAAAAAAAAAAAAAAAAAAAAAAAAAAAAAAAAAAAAAAAAAAAAAAAAAAAAAAAAAAAAAAAAAAAAAAAAAAAAAAAAAAAAD87w0NAAAAsHRSTlMAETdfhq2+zNrm8awBL3Cy6bFvLg9jq+vqqmEOAkSi9PdNBBmIhxgfkfb5IyWf+pwJgPgM3t1LG7AaQ+dJ/f4FHcTCK+M47O88U137XPxSPSzu8OXkw4RHrk5M4AqFgcqkd8tpKGrRZhDQHpWTA169vH9KZUan9VsNYn6/uRft6DBoZ26vzmQ1gycmzdbZkPN5ePKSptgqbTbTUcCppUiKz5YSbJ4iJILhC0LHHFTimUvOM2UAAArlSURBVHja7dv5fxTlHcDxgQQwEDAgcqaYUI4QlSMWEgSCxSLKfUgEWiQCylGC9oDSUg0Wa2lBwYoI9NbSw177J3YJoIDwzOzOZp9sPp/3r/MMPPP6fpLszs4mSUlGjKyrHzV6zCMNYwsaUsY2PDJm9Lj6upEjSptodo3jJzzaFPsyla5p4qTHGis9/cmPT5ka+8KU3bTpM2ZWbvrN35j1ROwrUqlaprfOrsj4vzmnIfa1qDwNc+flHv/8tgWxL0Pla5/1ZK7xP/X0wtiXoHzaF5WfwOIlHbG3r/wWtj1T3vxbvxV766qMpcvKGH/nxNjbVuV0LS91/s+uiL1nVdLUlSWNf/aSVbF3rMrqbludff7PfTv2dlV5azqzzv/578TeqwZDw/hs81/7QuydanCsezHL/Fu99TdsdbyUPv/1G2LvUoNnw8bUn3/nP6xt2pzy99/PfYe5BVtC89+6Lfb+NNi2B94LPLcj9u40+F5+6P2A2Ttj703VsOZhTwrNib0zVUfPg+e/0vv/EKteedD8O33sF6PpQZ8OPxp7V6qeXV+f/+7Ye1I17bl//ot9/gvlu9+7L4C9sXek6nr13vk/1V7CuWP39bbVv6Yhpb6td38p39jtuPdp8aezntey68DBREPUwdd3tWSd5KK7T5yf8fsfbxw6HPsaFXb40JFss2w/etdZ3890yv7Win/rWJXXuGd/pnEe++qUeVkeAlo3qS/2pSmbxuNZbuq1fHU3KMuHAG/m/6KpqmbeWxlGOvfO6tnp3//uftUf/5rS/IPu1KHuuDPTH6Yu3fSj2BekUm1Mf2H/49tLT6Qt3LA511YUxe7UAnpvLZx5Mu33/+Oxr0Xl+Ena5/snTw2s+2laKEtiX4nK87O0ydYNLJuSsuq0r/9qVPPPU0Z7YmBVynvGbb7/q1lvvxOebf/NO3tnUip5N/ZVqHy/SBnu1uKaCeElY5pjX4TK15xyV/hskvoo2J7cm1BEe8LTfa+4pCm44oif/9S0xl8Gx7siSUaEE/EWYI17Pzzfw8na4PEWP/+vcTPDn/T+KqkLHh8Ve//Ka1RwwOuT+uBx3wPWvAPBAZ9LxgWP/zr29pXXb4IDnp6cDh0eG3v3ym97aMI7k/Ohw/tib1757QtN+ELyQehwb+zNK7/e0IT7k+DjYB/G3rzyawv/kb8YOnwu9uaVX09owh1J8KmRS7E3r/wuhSbcnYSOFj6KvXnl91FwxAYw7BkAnAHAGQCcAcAZAJwBwBkAnAHAGQCcAcAZAJwBwBkAnAHAGQCcAcAZAJwBwBkAnAHAGQCcAcAZAJwBwBkAnAHAGQCcAcAZAJwBwBkAnAHAGQCcAcAZAJwBwBkAnAHAGQCcAcAZAJwBwBkAnAHAGQCcAcAZAJwBwBkAnAHAGQCcAcAZAJwBwBkAnAHAGQCcAcAZAJwBwBkAnAHAGQCcAcAZAJwBwBkAnAHAGQCcAcAZAJwBwBkAnAHAGQCcAcAZAJwBwBkAnAHAGQCcAcAZAJwBwBkAnAHAGQCcAcAZAJwBwBkAnAHAGQCcAcAZAJwBwBkAnAHAGQCcAcAZAJwBwBkAnAHAGQCcAcAZAJwBwBkAnAHAGQCcAcAZAJwBwBkAnAHAGQCcAcAZAJwBwBkAnAHAGQCcAcAZAJwBwBkAnAHAGQCcAcAZAJwBwBkAnAHAGQCcAcAZAJwBwBkAnAHAGQCcAcAZAJwBwBkAnAHAGQCcAcAZAJwBwBkAnAHAGQCcAcAZAJwBwBkAnAHAGQCcAcAZAJwBwBkAnAHAGQCcAcAZAJwBwBkAnAHAGQCcAcAZAJwBwBkAnAHAGQCcAcAZAJwBwBkAnAHAGQCcAcAZAJwBwBkAnAHAGQCcAcAZAJwBwBkAnAHAGQCcAcAZAJwBwBkAnAHAGQCcAcAZAJwBwBkAnAHAGQCcAcAZAJwBwBkAnAHAGQCcAcAZAJwBwBkAnAHAGQCcAcAZAJwBwBkAnAHAGQCcAcAZAJwBwBkAnAHAGQCcAcAZAJwBwBkAnAHAGQCcAcAZAJwBwBkAnAHAGQCcAcAZAJwBwBkAnAHAGQCcAcAZAJwBwBkAnAHAGQCcAcAZAJwBwBkAnAHAGQCcAcAZAJwBwBkAnAHAGQCcAcAZAJwBwBkAnAHAGQCcAcAZAJwBwBkAnAHAGQCcAcAZAJwBwBkAnAHAGQCcAcAZAJwBwBkAnAHAGQCcAcAZAJwBwBkAnAHAGQCcAcAZAJwBwBkAnAHAGQCcAcAZAJwBwBkAnAHAGQCcAcAZAJwBwBkAnAHAGQCcAcAZAJwBwBkAnAHAGQCcAcAZAJwBwBkAnAHAGQCcAcAZAJwBwBkAnAHAGQCcAcAZAJwBwBkAnAHAGQCcAcAZAJwBwBkAnAHAGQCcAcAZAJwBwBkAnAHAGQCcAcAZAJwBwBkAnAHAGQCcAcAZAJwBwBkAnAHAGQCcAcAZAJwBwBkAnAHAGQCcAcAZAJwBwBkAnAHAGQCcAcAZAJwBwBkAnAHAGQCcAcAZAJwBwBkAnAHAGQCcAcAZAJwBwBkAnAHAGQCcAcAZAJwBwKUEsCp09FLszSu/S6EJr0ouhg6fi7155bc3NOHfJg2hwx/G3rzy+zg04R3JB6HDvbE3r/wuhyb8SXI+dHhf7M0rv+CE9yenQ4fHxt68cmsMvsobnYwLHS4cjL195XUlOOApSX3w+IHY21denwYH3JPUBY/vir195TUxOODjydrg8ZbDsfevfEZ0BAd8NTkcPF44FPsClM+B8HyLP+D9wQVvNMa+AuXReC043v4k7W9EYXfsS1Ae18PT7SoumRBecr4v9jWofH1HwtOdUFwzPryk8Hrsi1D5Pk0Z7mPFNY3TwmvWLY99FSrX8nXh2U4beIU3PaWS3/lHoEY1v5Uy2t8PLJuRssqnAmpVT9pkZwwsm3kyZVn3+7GvROVY350y2JbJtxb+IS2UTS/FvhaVbvOGtLmeuL3yj2kLC5u8IVhzjqfOv7Dy9tK+htSl3T2+EqwpfT1pv/8LhRWz76yem7q2UDjtu8Easvx0hpH+6cvlby/IsHz7JH8J1Ijm4y9kGGjHXT/SxzKsLxT+fN1PhmpA4/Ujmcb5l7vOOdqe6ZTCtQOfxb48hX327rVss1w4/+7TFmU7qfh7Y+LnV2Jfox7myucTO7JO8q/3nHkj83lFF8dc/rj+NQ0p9ccuj7lYwhA7/nZvO38v4VwNA/ff31+8NPaOVE3/+Of9fz5eib0lVVPr119AvBd7T6qerge8glzeFHtXqpZpnQ96D/HFptj7UnV0tyYPtDf/P61aUP+Q2wh9b8bemarhX6sfdiOp8+XYe9Pg2/Hvh99KfP6d2LvTYNt+JnQzeeQTsfenwdWyJfxxwrL0B4lUw9If79xoAcPYprq0+SfJnrSnxFWzOv6TPv/i64CpsfepwbFuS5b5J8mV/8beqQZDw5ls80+SzjWx96rKW9OZdf5J0rdkVf7/UENJd9vq7PMv+mJF7B2rkqauLGn8Rct3xd6zKqerhF//X3r2k9jbVmUsXVbG+IsWL2mJvXXlt7DtmfLmX3RjUcZvjGioal90o+zx33S0zRuDNax91pO5xn/TvLk7Yl+GytMwZ17u8d/U/OL/SvnOiYaElumts/PP/o5TdSf68+9J1dJ/4vipyk3/lsatZ7u8O1QDVnSd3Tpo3+OffHV9z5SdF5q2+dTAELNhW9OFnVN61l+dXNpE/w97R8WO1gBDAgAAAABJRU5ErkJggg==;" parent="FQLjCHzrVEqeMGWYMrkH-11" vertex="1">
          <mxGeometry y="5.5" width="47" height="47" as="geometry" />
        </mxCell>
        <mxCell id="FQLjCHzrVEqeMGWYMrkH-10" value="" style="shape=image;verticalLabelPosition=bottom;labelBackgroundColor=default;verticalAlign=top;aspect=fixed;imageAspect=0;image=data:image/png,iVBORw0KGgoAAAANSUhEUgAAAgAAAAIACAMAAADDpiTIAAACXlBMVEUAAAAAAAAAAAAAAAAAAAAAAAAAAAAAAAAAAAAAAAAAAAAAAAAAAAAAAAAAAAAAAAAAAAAAAAAAAAAAAAAAAAAAAAAAAAAAAAAAAAAAAAAAAAAAAAAAAAAAAAAAAAAAAAAAAAAAAAAAAAAAAAAAAAAAAAAAAAAAAAAAAAAAAAAAAAAAAAAAAAAAAAAAAAAAAAAAAAAAAAAAAAAAAAAAAAAAAAAAAAAAAAAAAAAAAAAAAAAAAAAAAAAAAAAAAAAAAAAAAAAAAAAAAAAAAAAAAAAAAAAAAAAAAAAAAAAAAAAAAAAAAAAAAAAAAAAAAAAAAAAAAAAAAAAAAAAAAAAAAAAAAAAAAAAAAAAAAAAAAAAAAAAAAAAAAAAAAAAAAAAAAAAAAAAAAAAAAAAAAAAAAAAAAAAAAAAAAAAAAAAAAAAAAAAAAAAAAAAAAAAAAAAAAAAAAAAAAAAAAAAAAAAAAAAAAAAAAAAAAAAAAAAAAAAAAAAAAAAAAAAAAAAAAAAAAAAAAAAAAAAAAAAAAAAAAAAAAAAAAAAAAAAAAAAAAAAAAAAAAAAAAAAAAAAAAAAAAAAAAAAAAAAAAAAAAAAAAAAAAAAAAAAAAAAAAAAAAAAAAAAAAAAAAAAAAAAAAAAAAAAAAAAAAAAAAAAAAAAAAAAAAAAAAAAAAAAAAAAAAAAAAAAAAAAAAAAAAAAAAAAAAAAAAAAAAAAAAAAAAAAAAAAAAAAAAAAAAAAAAAAAAAAAAAAAAAAAAAAAAAAAAAAAAAAAAAAAAAAAAAAAAAAAAAAAAAAAAAAAAAAAAAAAAAC1LfkLAAAAyXRSTlMABhEiLThEVQUEJ051m8HowJp0JgMrZqrv9Lt3PBRqsrBpEwdN+fxeCjSY7pcys/7EvAE/zcs+GKIXAuxvMc7ML/b4DqeuEDPc4Ddc/XaAkbGepIuJc1v3DdkPpWtoMG3xGaA9QMpKRcO6tpmW7VRR85VyvRX66ZA6EtpiZGd59dXQrAgJr5+3q7TP0igle0vd6r+PkubyIB6UKjlGY2VSV1g75evfcXwk1K2h1izRfZO+U0+4tcJIQ8ecyS6pDNjbiIWjbqYWQh+/t/cNAAANSElEQVR42u3di3+VdQHH8edMBoyr4WFjsBTZaDBgw5k0xgiYIWQoasEsxShSSxhxMRIUsAK7iKFLREUl7GaYld01K7t3/qvkNTLAbTy/4/k9n3Oe7/f9F3x/n99xk8M5D0liZmZmZmZmZmZmZmZmZmZmZmZmZmZmZmZmZmZmZmZmZmZmZmZmZmZmZmYiCnVXjKsfP8FSG18/7oq6ifS9vX8NkyZPmTptesnKMv3KD8yYfFUDfYtlKs5sbJpFJ8yD5tlzWmruh8EHr77Gl19Bs+ZeO4++0/Ra25rm08Xy50Oz2xfQN5vKwo5FdKu8WrR4CX27l9XS2UVnyrWlbfQNj33919GB8m9pWzd9zaO5/sN0HA03LKNvekQf6fEP/6w0Ladv+z1621fQVZTM6ivSN36xlR+lk6hZtZq+8wu1r6F76Onvo2/9XTd+jI6hae1N9M0PW7eeLqHq4zfTd39Ou9/2xfR/gr79JOnbQFdQ1nULfP3dt9IJ1G3sJe+/OJU+v/WAnxWYeBt9eiuV5mIfGeq+nT67nXMH9bdDn6RPbsM+xdz/FPrc9j+biPtv91/+VY2uzdnf/+oB+tT2f/3rsr7/Oz9Nn9kutP4zGb8A7qJPbBdryvb+76bPa5fakuX9r+ynj2uXGrgnu/sv+vM/VWhVdp8S+yx9VhvJ1Vnd/3J/7a8qbf1cRi+AO+iT2sg+n839b/NbgFWq6wtZ3H+3v/9Tte7N4gVwH31KG939GbwAvkgf0kZ3Zfz7v54+o42lJfoL4Ev0EW0sD8S+/4X0CW1ssZ8hsp0+oI1tR9z7L/hL4FVusDXqC2AnfT67nC9HfQGU+UWAXdft3tNIP361ljRu2rF3V3mt18a8/we/UsaifV99qFafdopqaNm4r4zc8/dH3FTGB4EOPFygS9auwiNlfPX+YMRBwb8Bmm+puafcVpfCocOhzSP+DiiGfhDg0Zl0wNo36WuB0QfjfV94YeCUr3+DrpcHR44GZo/3XlDgl8Fur7JHmdWq4mNh3eN9UeybQTu4ry3nTfFbQeG/HWtHQ9CfTL/jn/8Vc+TxkPJbY/2XNylkRfNVdLU8ORb0Z4EnIq2YHDJiDt0sX74b0v54pBEzAjYc8Ns/FdX6ZED8PZFGhDwR6mG6WN40BsTviLRhWvoJ+/wDoMIKT6WvPxRpQ8C///c9ulf+PJ2+/ok4CwoBP4QeonPlz7aA/HH+HDgv/YBn/FdAFVdoTt8/zmPET6YfsJeulUdD6fs/G2XAuPQDnqNj5VFH+v7PRxlwKv0A5Ll1eRfwNkx9lAEvpB/wIh0rj15K3z/OVwRPpx/wfTpWHp1J3/90lAET0g+YQMfKI7w/PkAc3h8fIA7vjw8Qh/fHB4jD++MDxOH98QHi8P74AHF4f3yAOLw/PkAc3h8fIA7vjw8Qh/fHB4jD++MDxOH98QHi8P74AHF4f3yAOLw/PkAc3h8fIA7vjw8Qh/fHB4jD++MDxOH98QHi8P74AHF4f3yAOLw/PkAc3h8fIA7vjw8Qh/fHB4jD++MDxOH98QHi8P74AHF4f3yAOLw/PkAc3h8fIA7vjw8Qh/fHB4jD++MDxOH98QHi8P74AHF4f3yAOLw/PkAc3h8fIA7vjw8Qh/fHB4jD++MDxOH98QHi8P74AHF4f3yAOLw/PkAc3h8fIA7vjw8Qh/fHB4jD++MDxOH98QHi8P74AHF4f3yAOLw/PkAc3h8fIA7vjw8Qh/fHB4jD++MDxOH98QHi8P74AHF4f3yAOLw/PkAc3h8fIA7vjw8Qh/fHB4jD++MDxOH98QHi8P74AHF4f3yAOLw/PkAc3h8fIA7vjw8Qh/fHB4jD++MDxOH98QHi8P74AHF4f3yAOLw/PkAc3h8fIA7vjw8Qh/fHB4jD++MDxOH98QHi8P74AHF4f3yAOLw/PkAc3h8fIA7vjw8Qh/fHB4jD++MDxOH98QHi8P74AHF4f3yAOLw/PkAc3h8fIA7vjw8Qh/fHB4jD++MDxOH98QHi8P74AHF4f3yAOLw/PkAc3h8fIA7vjw8Qh/fHB4jD++MDxOH98QHi8P74AHF4f3yAOLw/PkAc3h8fIA7vjw8Qh/fHB4jD++MDxOH98QHi8P74AHF4f3yAOLw/PkAc3h8fIA7vjw8Qh/fHB4jD++MDxOH98QHi8P74AHF4f3yAOLw/PkAc3h8fIA7vjw8Qh/fHB4jD++MDxOH98QHi8P74AHF4f3yAOLw/PkAc3h8fIA7vjw8Qh/fHB4jD++MDxOH98QHi8P74AHF4f3yAOLw/PkAc3h8fIA7vjw8Qh/fHB4jD++MDxOH98QHi8P74AHF4f3yAOLw/PkAc3h8fIA7vjw8Qh/fHB4jD++MDxOH98QHi8P74AHF4f3yAOLw/PkAc3h8fIA7vjw8Qh/fHB4jD++MDxOH98QHi8P74AHF4f3yAOLw/PkAc3h8fIA7vjw8Qh/fHB4jD++MDxOH98QHi8P74AHF4f3yAOLw/PkAc3h8fIA7vjw8Qh/fHB4jD++MDxOH98QHi8P74AHF4f3yAOLw/PkAc3h8fIA7vjw8Qh/fHB4jD++MDxOH98QHi8P74AHF4f3yAOLw/PkAc3h8fIA7vjw8Qh/fHB4jD++MDxOH98QHi8P74AHF4f3yAOLw/PkAc3h8fIA7vjw8Qh/fHB4jD++MDxOH98QHi8P74AHF4f3yAOLw/PkAc3h8fIA7vjw8Qh/fHB4jD++MDxOH98QHi8P74AHF4f3yAOLw/PkAc3h8fIA7vjw8Qh/fHB4jD++MDxOH98QHi8P74AHF4f3yAOLw/PkAc3h8fIA7vjw8Qh/fHB4jD++MDxOH98QHi8P74AHF4f3yAOLw/PkAc3h8fIA7vjw8Qh/fHB4jD++MDxOH98QHi8P74AHF4f3yAOLw/PkAc3h8fIA7vjw8Qh/fHB4jD++MDxOH98QHi8P74AHF4f3yAOLw/PkAc3h8fIA7vjw8Qh/fHB4jD++MDxOH98QHi8P74AHF4f3yAOLw/PkAc3h8fIA7vjw8Qh/fHB4jD++MDxOH98QHi8P74AHF4f3yAOLw/PkAc3h8fIA7vjw8Qh/fHB4jD++MDxOH98QHi8P74AHF4f3yAOLw/PkAc3h8fIA7vjw8Qh/fHB4jD++MDxOH98QHi8P74AHF4f3yAOLw/PkAc3h8fIA7vjw8Qh/fHB4jD++MDxOH98QHi8P74AHF4f3yAOLw/PkAc3h8fIA7vjw8Qh/fHB4jD++MDxOH98QHi8P74AHF4f3yAOLw/PkAc3v90+gFn6Fh5dCZ9/9NRBryQfsCLdKw8akzf//4oA06lH7CJjpVHU9L3r48yYFz6AbvpWHm0OH3/mVEGnEw/YC8dK4+G0vd/NsqAeekH7JpI18qfQnP6/jfFWZB+QOllOlf+LEtfvyvSf3/T00/YSOfKn+fS1/9BpAnT0k/YV6B75U3rD9PXH4q0YWrA74BH6GB5syUg/uJIG2YEbFjvHwEV1fqjgPg/jjRicsCG0iE6Wb78JKT9fZFGTAoZcfgY3SxPnj8c0v6VSCsanglZ8fgRulp+LPhpSPmtxVg7HgiZUbqmge6WF8WzQeE7ow0J+b/AdzwW7ZWopeHVsO57oi1ZFzaktNa/BSpgwW2B2VdGm1JcFDjlZ6/R9WrfsZ8HRh/sjTdmbuCW0uFDfj/gfWn9xZrQ5mcjzrk2dEyp9ORLfgmUrfVgyPs/5zVGHDRvfvie0lNPb/PfDpehsOyXAe//v6u/Luao4N8Bw5pfXzylcYKl1jilY6i5vNYxfwMkya/KG2XZ+XXUF0BhBX0+G9tga9QXQNJBH9DGFvvzuKHvBVm2uuK9C3Teb+gj2lh+G/v+Qz6baNlrif4CSH5Hn9FG93r8+09+Tx/SRveHDF4AySr6lDaaN7K4/6Sliz6njazrVCYvgKSHPqiN7M1s7j9ZHvqxAMvEogczegEkd9NHtZEczOr+k94/0me191qV4UcwVw/Qp7VLrXkru/sv66NBFlfMDwKN4C76vHaxP2V7/8mf/0Kf2C709o0ZvwCSt4I/rWrx9C/J+v6TZLPfEKwaG5Anc/rdgKoR64EAl/FX+tw27G/M/Sfdb9Int3P+3g29AJKGMr8mYJV0FPwafjHkuVEWxavo1666b6XPr24j9vP/vH9soBMo65oBX/87NvfTFXQNVMW/zLHybbqDqgP30Hc/7M5/0iU0nY3zUPBytAc9xs4qYaCPvvULrfZnxTN2Q6af/7i83vZynmZhZZrVV32P4Nu/0X8gzEhXz7/o2x5Ry710GQ1vVO+/x9LSScfJv6Vt9C2P6eVOf04kpqX/pm/4spbsGKQr5dWK3dGf/1ERhbYef2Cw4vo7J9TQIzf3bznqLxBW0ODZxqjPf4yhd2Zj0yw6XB40z56zLuLzn6NqeOX4nu1DJ+iEterE0PZNx5/Iwb+7Uaw7+Vr9+J3081drx87xN8/8T12t/mdvZmZmZmZmZmZmZmZmZmZmZmZmZmZmZmZmZmZmZmZmZmZmZmZmZmZmZmbB/gtHqQ0KOFiiOwAAAABJRU5ErkJggg==;" vertex="1" parent="FQLjCHzrVEqeMGWYMrkH-11">
          <mxGeometry x="91" width="58" height="58" as="geometry" />
        </mxCell>
        <mxCell id="FQLjCHzrVEqeMGWYMrkH-2" value="" style="shape=image;verticalLabelPosition=bottom;labelBackgroundColor=default;verticalAlign=top;aspect=fixed;imageAspect=0;image=data:image/png,iVBORw0KGgoAAAANSUhEUgAAAgAAAAIACAYAAAD0eNT6AAAABHNCSVQICAgIfAhkiAAAAAlwSFlzAAAXywAAF8sBAlTh4wAAABl0RVh0U29mdHdhcmUAd3d3Lmlua3NjYXBlLm9yZ5vuPBoAABCXSURBVHic7d17rG0JXdjx71yGdhBGgeJYio+pyDjykAgBtAq2jCHxTesbE5QojS1pqlYr9pHWqm01WidKgtBKa7Sl2kbrE9AKio6KAVQM4xSaCqiFEgkUQWZwhts/1j1w5vY+z917rXPP7/NJVvY5++y91u+e3GR9z95rr3VNJ8+p6gFnlusPfX1ddc2Gc50U91S/uPUQe3ZD9bith2An3lf9ytZD7NnHVI/aeogT6O7qPWeWPz309V1bDrVL1249wBX46OrR1U3VI87c3lR9bEsEsB93tcTUSfbXqp/cegh24s3VjVsPsWefWz1/6yEGeVf1P84sbzhze0d1e/WBDee6bFdTAHxC9ZTqM8/c3rjpNABM9MDqSWeWw95VvbJ6RfXL1es65kFwnAPgmurTq6+ovrB62LbjAMB5PbD6gjNL1Turn6l+tHp5y9unx8pxDIDHtez0v6zlvS0AuNo8qHrmmeWt1YtbYuC3txzqsOPyXvl9qi+vXlu9pvqm7PwBOBkeWn1jyz7uVdXndwwOSt86AO5XPad6Y0sdfcq24wDAXj2x+umWVwK+pA33w1tt+C9U31y9pXpe9Vc3mgMAtvDY6ser1/eh4wZWtUUAPL3l4xLfXT1kg+0DwHFxc/VTLQcMfvyaG14zAB5T/feWz1c/fMXtAsBx93ktrwb8s1Y618oaAXDf6jtb3u+4ZYXtAcDV6Lrqn1e/U33yvje27wB4RHVb9Y9ajvQHAC7sE1s+LfDsfW5knwHw7Ja/+p+wx20AwEl0XfXC6j+2XM9m5/YRAPdrObLxhdX997B+AJjiGdWr28Pp73cdADe0nAP5S3a8XgCY6hOrX6seucuV7jIAbq5+s+UkBwDA7jys+tV2uI/dVQD89eo3ckIfANiXB1e/1I4+UbeLALileknLlZAAgP15QMtJgz7tSld0pQHw5JZzGq9y0gIAoPtVP9vy1vuRXUkAfGr1c9WHXckAAMBle3D1suqvHHUFRw2Ax7W87H/9UTcMAFyRj23ZF3/4UZ58lAD4qJaX/b3nDwDb+uTqh47yxMsNgGtbTvLzsKNsDADYuS+uvu5yn3S5AfA91VMudyMAwF59X8tVdy/Z5QTAM6q/f1njAABruK7lFfpLPjD/UgPgxpZz+wMAx9PN1b+81AdfagC8IBf2AYDj7jnVoy7lgZcSAM+snnZF4wAAa7i2+v5LeeDFAuAjq39zxeMAAGt5avVFF3vQxQLg1uov7WQcAGAt39tFTtN/oQB4fMuR/wDA1eXjqmdd6AEXCoB/sdtZAIAVfVN1n/P98HwB8GnV5+xlHABgDR9ffen5fni+APj2/cwCAKzoW873g3MFwJOrW/Y3CwCwksd2no/ynysA/s5+ZwEAVvTV57rz7AB4cPW39j4KALCWL+wcZ/M9OwC+svqLq4wDAKzhw1oi4F7ODoCvWWcWAGBF/995fQ4HwONbDhYAAE6Wp3XWmX0PB8AXrDsLALCS+1Z/4/AdhwPAFf8A4OR6yuFvDgLggdUT1p8FAFjJOQPgqV3gfMEAwFXvMdWDDr45CAAv/wPAyXaq+ozD33T4DgDgxHriwRenqmurm7abBQBYySMOvjhVPbzl4wEAwMl2rwB45IaDAADruVcAfNKGgwAA67m++sslAABgmk+oJQBu2HgQAGA9D6klAD5840EAgPVcXwIAAKZ5QAkAAJjmg68AXL/xIADAej74CoAAAIA57l/LaYBPXeSBV7s7qhdsPcQJcvfWA6zg96pv2HoIduLdWw+wgtvy/3WXbqi+desh9uyDV/89fcKXl+7itwXACDe3/X5r38utdfL/+gcAzkEAAMBAAgAABhIAADCQAACAgQQAAAwkAABgIAEAAAMJAAAYSAAAwEACAAAGEgAAMJAAAICBBAAADCQAAGAgAQAAAwkAABhIAADAQAIAAAYSAAAwkAAAgIEEAAAMJAAAYCABAAADCQAAGEgAAMBAAgAABhIAADCQAACAgQQAAAwkAABgIAEAAAMJAAAYSAAAwEACAAAGEgAAMJAAAICBBAAADCQAAGAgAQAAAwkAABhIAADAQAIAAAYSAAAwkAAAgIEEAAAMJAAAYCABAAADCQAAGEgAAMBAAgAABhIAADCQAACAgQQAAAwkAABgIAEAAAMJAAAYSAAAwEACAAAGEgAAMJAAAICBBAAADCQAAGAgAQAAAwkAABhIAADAQAIAAAYSAAAwkAAAgIEEAAAMJAAAYCABAAADCQAAGEgAAMBAAgAABhIAADCQAACAgQQAAAwkAABgIAEAAAMJAAAYSAAAwEDXVn9Q3V7dvfEs+/Km6sYztwBwIR+o7qjeUJ3eeJZ9eUf10K2HAAAAAAAAAAAAAAAAAAAAAAAAAAAAAAAAAAAAAAAAAAAAAAAAAAAAAAAAAAAAAAAAAAAAAAAAAAAAAAAAAAAAAAAAAAAAAAAAAAAAAAAAAAAAAAAAAAAAAAAAAAAAAAAAAAAAAAAAAAAAAAAAAAAAuFLXVD+49RB79vrqB7YeAoCrwkdV37b1EHv2S9V/qTp9wpeX7ugXBsDJd3Pb77f2vdxadWpHvzAA4CoiAABgIAEAAAMJAAAYSAAAwEACAAAGEgAAMJAAAICBBAAADCQAAGAgAQAAAwkAABhIAADAQAIAAAYSAAAwkAAAgIEEAAAMJAAAYCABAAADCQAAGEgAAMBAAgAABhIAADCQAACAgQQAAAwkAABgIAEAAAMJAAAYSAAAwEACAAAGEgAAMJAAAICBBAAADCQAAGAgAQAAAwkAABhIAADAQAIAAAYSAAAwkAAAgIEEAAAMJAAAYCABAAADCQAAGEgAAMBAAgAABhIAADCQAACAgQQAAAwkAABgIAEAAAMJAAAYSAAAwEACAAAGEgAAMJAAAICBBAAADCQAAGAgAQAAAwkAABhIAADAQAIAAAYSAAAwkAAAgIEEAAAMJAAAYCABAAADCQAAGEgAAMBAAgAABhIAADCQAACAgQQAAAwkAABgIAEAAAMJAAAYSAAAwEACAAAGEgAAMJAAAICBBAAADCQAAGAgAQAAAwkAABhIAADAQAIAAAYSAAAwkAAAgIEEAAAMJAAAYCABAAADCQAAGEgAAMBAAgAABhIAADCQAACAgQQAAAwkAABgIAEAAAMJAAAYSAAAwEACAAAGEgAAMJAAAICBBAAADCQAAGAgAQAAAwkAABhIAADAQAIAAAYSAAAwkAAAgIEEAAAMdG31gq2H2LPXbz0AAFeNd3by94u3bT0AAAAAAAAAAAAAAAAAAAAAAAAAAAAAAAAAAAAAAAAAAAAAAAAAAAAAAAAAAAAAAAAAAAAAAAAAAAAAAAAAAAAAAAAAAAAAAAAAAAAAAAAAAAAAAAAAAAAAAAAAAAAAAAAAAAAAAAAAAAAAAAAAAADALlxTfVv1yOq+G8+yL2+qbj1zCwAX8sDqudVN1amNZ9mX11T/rur0CV9euqNfGAAn381tv9/a93Jrndy6AQAuQAAAwEACAAAGEgAAMJAAAICBBAAADCQAAGAgAQAAAwkAABhIAADAQAIAAAYSAAAwkAAAgIEEAAAMJAAAYCABAAADCQAAGEgAAMBAAgAABhIAADCQAACAgQQAAAwkAABgIAEAAAMJAAAYSAAAwEACAAAGEgAAMJAAAICBBAAADCQAAGAgAQAAAwkAABhIAADAQAIAAAYSAAAwkAAAgIEEAAAMJAAAYCABAAADCQAAGEgAAMBAAgAABhIAADCQAACAgQQAAAwkAABgIAEAAAMJAAAYSAAAwEACAAAGEgAAMJAAAICBBAAADCQAAGAgAQAAAwkAABhIAADAQAIAAAYSAAAwkAAAgIEEAAAMJAAAYCABAAADCQAAGEgAAMBAAgAABhIAADCQAACAgQQAAAwkAABgIAEAAAMJAAAYSAAAwEACAAAGEgAAMJAAAICBBAAADCQAAGAgAQAAAwkAABjoVHXP1kMAAKs5VXVt9erqSdvOslcfV3391kOcIHdXz9t6iD17ePX5Ww/BTry7etHWQ+zZY6pbth7iBLlh6wFW8Oiqa6rvqP7xtrNwFbmrum7rIfbs6dVPbj0EO/Hm6sath9izr6uev/UQXFXeW33EqerlW08CAKzm/tUnnap+d+tJAIBVPeBU9Y7q7VtPAgCs5+BjgLdvOgUAsCoBAAADCQAAGOggAF636RQAwJrecxAAr67+fMtJAIBV/Fn1+wcB8L7qtRsOAwCs4zXVPYcvBvRrW00CAKzmVXXvqwHettEgAMB6BAAADPRbde8AeHv1xm1mAQBW8LbqLXXvAKj6hfVnAQBW8oqDL84OgB9ZeRAAYD0vPvji7AB4VfWGdWcBAFbwzuplB9+cHQDlVQAAOIl+onr/wTfnC4DTq40DAKzhxYe/OVcAvLl65TqzAAAreFuHDgCscwdA1Q/vfxYAYCU/Vn3g8B3nC4D/VP3x3scBAPbtnup5Z995vgC4q/quvY4DAKzhv1b/8+w7zxcAVf+2+t97GwcAWMO/PtedFwqAO/MqAABczV5S/c65fnChAKh6YfXWnY8DAKzhX53vBxcLgDur5+52FgBgBT9X/er5fnixAKjlxEC/vrNxAIB9u6f65gs94FIC4HT1t1teDQAAjr/vrX7/Qg+4lACoen0XKQkA4Fh4bfVPLvagSw2AWk4i8PNHHgcA2Lc/q76y+vOLPfByAqDqWdX/OcpEAMDe/YPqjkt54OUGwNtbIgAAOF5+uvrBS33w5QZALScV+IEjPA8A2I+3VV9zOU84SgBU/cPqdUd8LgCwO6err67+5HKedNQAuLP67Op/HfH5AMBuPKd62eU+6agBUMuFgp5a/eEVrAMAOLpvqZ5/lCdeSQBUvbm6peW9BwBgPd9RffdRn3ylAVD1xuqzqnfsYF0AwMV9f/VPr2QFuwiAWs4U+LTq/+5ofQDAub2o+vorXcmuAqCWUw9+dvXuHa4TAPiQH6ue3XLk/xXZZQBU/Ub1GTkwEAB27UUtp/n9wC5WtusAqPq96knVq/awbgCY6LtaTvRzz65WuI8AqHpr9ZSWCwgBAEfzzupvVs/d9Yr3FQBV76/+XvWM6r173A4AnES/WX1K9d/2sfJ9BsCBF1dP7BKvTgQAw51u+Xz/k1vOt7MXawRA1e3VE1qOXgQAzu1Pqs9tOcPf3fvc0FoBUPWe6stb3hbwUUEAuLeXVI89c7t3awbAgedVD6++r7prg+0DwHHyWy3X1vmcluvsrGKLAKjlJY5vrG6q/kM7+kwjAFxF7qi+qOWj869Ye+NbBcCBt1TPqh5T/dTGswDAGv6o+trq0dVPbDXE1gFw4Pbq6dXjWy5r+K5txwGAnTpdvbLlj95HVD/UDk/qcxTHJQAOvLb6u9VDq6+ofiFvDwBw9XpL9e0tO/3PbHnb+84tBzpw7dYDnMed1X8+s3x09VXVM1uOGQCA4+y9LW9r//vq5R3TP2SPawAc9kfVd55ZHlZ9+qHlsV0d/wYATq63VrcdWn67PX+Gfxeutp3nH1c/fmapun/L0ZMHMfCR1UPO3D64us8GMwJw8vxpyyfYDpY3Vb/essP/g+3GOrprth5gj66pHtQSBA+pru9k/3vXck/1i1sPsWc3VI/begh24n3Vr2w9xJ59TPWorYc4gd5fvaMP7fBP3Hlr/h/YRK1FLYq48AAAAABJRU5ErkJggg==;" vertex="1" parent="FQLjCHzrVEqeMGWYMrkH-12">
          <mxGeometry x="365" y="30.5" width="47" height="47" as="geometry" />
        </mxCell>
        <mxCell id="FQLjCHzrVEqeMGWYMrkH-13" value="" style="group" vertex="1" connectable="0" parent="1">
          <mxGeometry x="-32" y="458" width="610" height="265" as="geometry" />
        </mxCell>
        <mxCell id="FQLjCHzrVEqeMGWYMrkH-22" value="" style="rounded=1;whiteSpace=wrap;html=1;fillOpacity=0;fillColor=#ffe6cc;strokeColor=#d79b00;strokeWidth=2;" vertex="1" parent="FQLjCHzrVEqeMGWYMrkH-13">
          <mxGeometry x="-32" y="-10" width="642" height="281" as="geometry" />
        </mxCell>
        <mxCell id="FQLjCHzrVEqeMGWYMrkH-14" value="" style="whiteSpace=wrap;strokeWidth=2;rotation=-90;container=0;" vertex="1" parent="FQLjCHzrVEqeMGWYMrkH-13">
          <mxGeometry x="-54.25" y="128.74" width="218.5" height="15.83" as="geometry" />
        </mxCell>
        <mxCell id="FQLjCHzrVEqeMGWYMrkH-15" value="Application&amp;nbsp; Layer" style="text;html=1;strokeColor=none;fillColor=none;align=center;verticalAlign=middle;whiteSpace=wrap;rounded=0;" vertex="1" parent="FQLjCHzrVEqeMGWYMrkH-13">
          <mxGeometry width="110" height="20.64880112834979" as="geometry" />
        </mxCell>
        <mxCell id="FQLjCHzrVEqeMGWYMrkH-16" value="" style="endArrow=classic;html=1;rounded=0;" edge="1" parent="1">
          <mxGeometry width="50" height="50" relative="1" as="geometry">
            <mxPoint x="47" y="595.5" as="sourcePoint" />
            <mxPoint x="147" y="595.5" as="targetPoint" />
          </mxGeometry>
        </mxCell>
        <mxCell id="FQLjCHzrVEqeMGWYMrkH-17" value="Query" style="edgeLabel;html=1;align=left;verticalAlign=middle;resizable=0;points=[];" vertex="1" connectable="0" parent="FQLjCHzrVEqeMGWYMrkH-16">
          <mxGeometry x="-0.5667" y="4" relative="1" as="geometry">
            <mxPoint as="offset" />
          </mxGeometry>
        </mxCell>
        <mxCell id="FQLjCHzrVEqeMGWYMrkH-19" value="" style="endArrow=classic;html=1;rounded=0;exitX=0.5;exitY=1;exitDx=0;exitDy=0;entryX=0.354;entryY=0.037;entryDx=0;entryDy=0;entryPerimeter=0;" edge="1" parent="1" source="FQLjCHzrVEqeMGWYMrkH-10" target="-VKRcfKKGnfU7Yh5SjRk-2085">
          <mxGeometry width="50" height="50" relative="1" as="geometry">
            <mxPoint x="319" y="488" as="sourcePoint" />
            <mxPoint x="369" y="438" as="targetPoint" />
          </mxGeometry>
        </mxCell>
        <mxCell id="FQLjCHzrVEqeMGWYMrkH-20" value="Read side updates read database" style="edgeLabel;html=1;align=center;verticalAlign=middle;resizable=0;points=[];" vertex="1" connectable="0" parent="FQLjCHzrVEqeMGWYMrkH-19">
          <mxGeometry x="-0.278" y="1" relative="1" as="geometry">
            <mxPoint as="offset" />
          </mxGeometry>
        </mxCell>
        <mxCell id="FQLjCHzrVEqeMGWYMrkH-21" value="" style="endArrow=classic;startArrow=classic;html=1;rounded=0;entryX=1;entryY=0.5;entryDx=0;entryDy=0;" edge="1" parent="1">
          <mxGeometry width="50" height="50" relative="1" as="geometry">
            <mxPoint x="450" y="597" as="sourcePoint" />
            <mxPoint x="233" y="597" as="targetPoint" />
          </mxGeometry>
        </mxCell>
        <mxCell id="cMTnH-UVxewZ_KafLdWO-41" value="" style="group" parent="1" vertex="1" connectable="0">
          <mxGeometry x="-206" y="550" width="190" height="88" as="geometry" />
        </mxCell>
        <mxCell id="cMTnH-UVxewZ_KafLdWO-38" value="Query API" style="shape=image;verticalLabelPosition=bottom;labelBackgroundColor=#ffffff;verticalAlign=top;aspect=fixed;imageAspect=0;image=data:image/svg+xml,PHN2ZyB4bWxuczpjYz0iaHR0cDovL2NyZWF0aXZlY29tbW9ucy5vcmcvbnMjIiB4bWxuczpkYz0iaHR0cDovL3B1cmwub3JnL2RjL2VsZW1lbnRzLzEuMS8iIHhtbG5zOmlua3NjYXBlPSJodHRwOi8vd3d3Lmlua3NjYXBlLm9yZy9uYW1lc3BhY2VzL2lua3NjYXBlIiB4bWxuczpyZGY9Imh0dHA6Ly93d3cudzMub3JnLzE5OTkvMDIvMjItcmRmLXN5bnRheC1ucyMiIHhtbG5zOnNvZGlwb2RpPSJodHRwOi8vc29kaXBvZGkuc291cmNlZm9yZ2UubmV0L0RURC9zb2RpcG9kaS0wLmR0ZCIgeG1sbnM6c3ZnPSJodHRwOi8vd3d3LnczLm9yZy8yMDAwL3N2ZyIgeG1sbnM9Imh0dHA6Ly93d3cudzMub3JnLzIwMDAvc3ZnIiB4bWxuczp4bGluaz0iaHR0cDovL3d3dy53My5vcmcvMTk5OS94bGluayIgdmVyc2lvbj0iMS4xIiBpZD0ic3ZnMTY4NTI4IiBpbmtzY2FwZTp2ZXJzaW9uPSIwLjkyLjMgKDI0MDU1NDYsIDIwMTgtMDMtMTEpIiBzb2RpcG9kaTpkb2NuYW1lPSJkb3RuZXQuc3ZnIiB4PSIwcHgiIHk9IjBweCIgdmlld0JveD0iMCAwIDQ4IDQ4IiBzdHlsZT0iZW5hYmxlLWJhY2tncm91bmQ6bmV3IDAgMCA0OCA0ODsiIHhtbDpzcGFjZT0icHJlc2VydmUiPiYjeGE7PHNvZGlwb2RpOm5hbWVkdmlldyBib3JkZXJjb2xvcj0iIzY2NjY2NiIgYm9yZGVyb3BhY2l0eT0iMSIgZml0LW1hcmdpbi1ib3R0b209IjAiIGZpdC1tYXJnaW4tbGVmdD0iMCIgZml0LW1hcmdpbi1yaWdodD0iMCIgZml0LW1hcmdpbi10b3A9IjAiIGdyaWR0b2xlcmFuY2U9IjEwIiBndWlkZXRvbGVyYW5jZT0iMTAiIGlkPSJuYW1lZHZpZXcxNjg1MzAiIGlua3NjYXBlOmN1cnJlbnQtbGF5ZXI9InN2ZzE2ODUyOCIgaW5rc2NhcGU6Y3g9IjQzLjc0ODEwNiIgaW5rc2NhcGU6Y3k9IjIxLjc5MTkwMiIgaW5rc2NhcGU6cGFnZW9wYWNpdHk9IjAiIGlua3NjYXBlOnBhZ2VzaGFkb3c9IjIiIGlua3NjYXBlOndpbmRvdy1oZWlnaHQ9IjEwMTciIGlua3NjYXBlOndpbmRvdy1tYXhpbWl6ZWQ9IjEiIGlua3NjYXBlOndpbmRvdy13aWR0aD0iMTkyMCIgaW5rc2NhcGU6d2luZG93LXg9Ii04IiBpbmtzY2FwZTp3aW5kb3cteT0iLTgiIGlua3NjYXBlOnpvb209IjkuMTY1MTI1OSIgb2JqZWN0dG9sZXJhbmNlPSIxMCIgcGFnZWNvbG9yPSIjZmZmZmZmIiBzaG93Z3JpZD0iZmFsc2UiPiYjeGE7CTwvc29kaXBvZGk6bmFtZWR2aWV3PiYjeGE7PGNpcmNsZSBpZD0iZWxsaXBzZTE2ODQ5NyIgc3R5bGU9ImZpbGw6IzVDMkQ5MTsiIGN4PSIyNCIgY3k9IjI0IiByPSIyNCIvPiYjeGE7PHBhdGggaWQ9InBhdGgxNjg1MDIiIGlua3NjYXBlOmNvbm5lY3Rvci1jdXJ2YXR1cmU9IjAiIHN0eWxlPSJmaWxsOiNGRkZGRkY7ZmlsbC1vcGFjaXR5OjAuMDk4OyIgZD0iTTcuMzYsNi43NSAgQy0yLjUzLDE1LjU3LTMuNCwzMC43NCw1LjQyLDQwLjY0UzI5LjQxLDUxLjQsMzkuMyw0Mi41OGMwLjY5LTAuNjEsMS4zNC0xLjI2LDEuOTUtMS45NUw3LjM2LDYuNzV6Ii8+JiN4YTs8cGF0aCBpZD0icGF0aDE2ODUwNyIgaW5rc2NhcGU6Y29ubmVjdG9yLWN1cnZhdHVyZT0iMCIgc3R5bGU9ImZpbGw6I0ZGRkZGRjsiIGQ9Ik01LjU1LDMwLjk0Yy0wLjI4LDAtMC41Ni0wLjExLTAuNzUtMC4zMiAgYy0wLjItMC4yLTAuMzEtMC40Ny0wLjMxLTAuNzVjMC0wLjI4LDAuMTEtMC41NSwwLjMxLTAuNzVDNSwyOC45MSw1LjI3LDI4LjgsNS41NSwyOC44YzAuMjgsMCwwLjU1LDAuMTEsMC43NSwwLjMyICBjMC4yLDAuMiwwLjMxLDAuNDcsMC4zMSwwLjc1YzAsMC4yOC0wLjExLDAuNTUtMC4zMSwwLjc1QzYuMTEsMzAuODIsNS44NCwzMC45NCw1LjU1LDMwLjk0eiIvPiYjeGE7PHBhdGggaWQ9InBhdGgxNjg1MTIiIGlua3NjYXBlOmNvbm5lY3Rvci1jdXJ2YXR1cmU9IjAiIHN0eWxlPSJmaWxsOiNGRkZGRkY7IiBkPSJNMjAuNDUsMzAuNzVoLTEuOTdsLTcuMDItMTAuOTEgIGMtMC4xOC0wLjI3LTAuMzItMC41NS0wLjQ0LTAuODVoLTAuMDZjMC4wNywwLjYyLDAuMDksMS4yNSwwLjA4LDEuODd2OS44OWgtMS42VjE3LjA4aDIuMDhsNi44NCwxMC43MSAgYzAuMjgsMC40NCwwLjQ3LDAuNzUsMC41NSwwLjkxaDAuMDRjLTAuMDgtMC42Ny0wLjExLTEuMzQtMC4xLTIuMDF2LTkuNjFoMS42VjMwLjc1eiIvPiYjeGE7PHBhdGggaWQ9InBhdGgxNjg1MTciIGlua3NjYXBlOmNvbm5lY3Rvci1jdXJ2YXR1cmU9IjAiIHN0eWxlPSJmaWxsOiNGRkZGRkY7IiBkPSJNMzEuMjcsMzAuNzVIMjRWMTcuMDhoNi45M3YxLjQ0aC01LjN2NC41NWg0Ljk0ICB2MS40NGgtNC45NHY0Ljc0aDUuNjRWMzAuNzV6Ii8+JiN4YTs8cGF0aCBpZD0icGF0aDE2ODUyMiIgaW5rc2NhcGU6Y29ubmVjdG9yLWN1cnZhdHVyZT0iMCIgc3R5bGU9ImZpbGw6I0ZGRkZGRjsiIGQ9Ik00MiwxOC41MmgtMy45N3YxMi4yM2gtMS42VjE4LjUySDMyLjV2LTEuNDRINDIgIFYxOC41MnoiLz4mI3hhOzwvc3ZnPg==;" parent="cMTnH-UVxewZ_KafLdWO-41" vertex="1">
          <mxGeometry x="102" width="88" height="88" as="geometry" />
        </mxCell>
        <mxCell id="cMTnH-UVxewZ_KafLdWO-39" value="" style="endArrow=classic;html=1;rounded=0;" parent="cMTnH-UVxewZ_KafLdWO-41" edge="1">
          <mxGeometry width="50" height="50" relative="1" as="geometry">
            <mxPoint x="102" y="43.60000000000002" as="sourcePoint" />
            <mxPoint y="43.60000000000002" as="targetPoint" />
          </mxGeometry>
        </mxCell>
        <mxCell id="cMTnH-UVxewZ_KafLdWO-40" value="HTTP" style="edgeLabel;html=1;align=center;verticalAlign=middle;resizable=0;points=[];" parent="cMTnH-UVxewZ_KafLdWO-39" vertex="1" connectable="0">
          <mxGeometry x="0.3122" y="-1" relative="1" as="geometry">
            <mxPoint as="offset" />
          </mxGeometry>
        </mxCell>
        <mxCell id="FQLjCHzrVEqeMGWYMrkH-27" value="" style="rounded=1;whiteSpace=wrap;html=1;fillOpacity=0;fillColor=#ffe6cc;strokeColor=#d79b00;strokeWidth=2;" vertex="1" parent="1">
          <mxGeometry x="-69" y="52" width="642" height="281" as="geometry" />
        </mxCell>
        <mxCell id="cMTnH-UVxewZ_KafLdWO-24" value="" style="group" parent="1" vertex="1" connectable="0">
          <mxGeometry x="-202" y="154" width="190" height="88" as="geometry" />
        </mxCell>
        <mxCell id="cMTnH-UVxewZ_KafLdWO-3" value="Command API" style="shape=image;verticalLabelPosition=bottom;labelBackgroundColor=#ffffff;verticalAlign=top;aspect=fixed;imageAspect=0;image=data:image/svg+xml,PHN2ZyB4bWxuczpjYz0iaHR0cDovL2NyZWF0aXZlY29tbW9ucy5vcmcvbnMjIiB4bWxuczpkYz0iaHR0cDovL3B1cmwub3JnL2RjL2VsZW1lbnRzLzEuMS8iIHhtbG5zOmlua3NjYXBlPSJodHRwOi8vd3d3Lmlua3NjYXBlLm9yZy9uYW1lc3BhY2VzL2lua3NjYXBlIiB4bWxuczpyZGY9Imh0dHA6Ly93d3cudzMub3JnLzE5OTkvMDIvMjItcmRmLXN5bnRheC1ucyMiIHhtbG5zOnNvZGlwb2RpPSJodHRwOi8vc29kaXBvZGkuc291cmNlZm9yZ2UubmV0L0RURC9zb2RpcG9kaS0wLmR0ZCIgeG1sbnM6c3ZnPSJodHRwOi8vd3d3LnczLm9yZy8yMDAwL3N2ZyIgeG1sbnM9Imh0dHA6Ly93d3cudzMub3JnLzIwMDAvc3ZnIiB4bWxuczp4bGluaz0iaHR0cDovL3d3dy53My5vcmcvMTk5OS94bGluayIgdmVyc2lvbj0iMS4xIiBpZD0ic3ZnMTY4NTI4IiBpbmtzY2FwZTp2ZXJzaW9uPSIwLjkyLjMgKDI0MDU1NDYsIDIwMTgtMDMtMTEpIiBzb2RpcG9kaTpkb2NuYW1lPSJkb3RuZXQuc3ZnIiB4PSIwcHgiIHk9IjBweCIgdmlld0JveD0iMCAwIDQ4IDQ4IiBzdHlsZT0iZW5hYmxlLWJhY2tncm91bmQ6bmV3IDAgMCA0OCA0ODsiIHhtbDpzcGFjZT0icHJlc2VydmUiPiYjeGE7PHNvZGlwb2RpOm5hbWVkdmlldyBib3JkZXJjb2xvcj0iIzY2NjY2NiIgYm9yZGVyb3BhY2l0eT0iMSIgZml0LW1hcmdpbi1ib3R0b209IjAiIGZpdC1tYXJnaW4tbGVmdD0iMCIgZml0LW1hcmdpbi1yaWdodD0iMCIgZml0LW1hcmdpbi10b3A9IjAiIGdyaWR0b2xlcmFuY2U9IjEwIiBndWlkZXRvbGVyYW5jZT0iMTAiIGlkPSJuYW1lZHZpZXcxNjg1MzAiIGlua3NjYXBlOmN1cnJlbnQtbGF5ZXI9InN2ZzE2ODUyOCIgaW5rc2NhcGU6Y3g9IjQzLjc0ODEwNiIgaW5rc2NhcGU6Y3k9IjIxLjc5MTkwMiIgaW5rc2NhcGU6cGFnZW9wYWNpdHk9IjAiIGlua3NjYXBlOnBhZ2VzaGFkb3c9IjIiIGlua3NjYXBlOndpbmRvdy1oZWlnaHQ9IjEwMTciIGlua3NjYXBlOndpbmRvdy1tYXhpbWl6ZWQ9IjEiIGlua3NjYXBlOndpbmRvdy13aWR0aD0iMTkyMCIgaW5rc2NhcGU6d2luZG93LXg9Ii04IiBpbmtzY2FwZTp3aW5kb3cteT0iLTgiIGlua3NjYXBlOnpvb209IjkuMTY1MTI1OSIgb2JqZWN0dG9sZXJhbmNlPSIxMCIgcGFnZWNvbG9yPSIjZmZmZmZmIiBzaG93Z3JpZD0iZmFsc2UiPiYjeGE7CTwvc29kaXBvZGk6bmFtZWR2aWV3PiYjeGE7PGNpcmNsZSBpZD0iZWxsaXBzZTE2ODQ5NyIgc3R5bGU9ImZpbGw6IzVDMkQ5MTsiIGN4PSIyNCIgY3k9IjI0IiByPSIyNCIvPiYjeGE7PHBhdGggaWQ9InBhdGgxNjg1MDIiIGlua3NjYXBlOmNvbm5lY3Rvci1jdXJ2YXR1cmU9IjAiIHN0eWxlPSJmaWxsOiNGRkZGRkY7ZmlsbC1vcGFjaXR5OjAuMDk4OyIgZD0iTTcuMzYsNi43NSAgQy0yLjUzLDE1LjU3LTMuNCwzMC43NCw1LjQyLDQwLjY0UzI5LjQxLDUxLjQsMzkuMyw0Mi41OGMwLjY5LTAuNjEsMS4zNC0xLjI2LDEuOTUtMS45NUw3LjM2LDYuNzV6Ii8+JiN4YTs8cGF0aCBpZD0icGF0aDE2ODUwNyIgaW5rc2NhcGU6Y29ubmVjdG9yLWN1cnZhdHVyZT0iMCIgc3R5bGU9ImZpbGw6I0ZGRkZGRjsiIGQ9Ik01LjU1LDMwLjk0Yy0wLjI4LDAtMC41Ni0wLjExLTAuNzUtMC4zMiAgYy0wLjItMC4yLTAuMzEtMC40Ny0wLjMxLTAuNzVjMC0wLjI4LDAuMTEtMC41NSwwLjMxLTAuNzVDNSwyOC45MSw1LjI3LDI4LjgsNS41NSwyOC44YzAuMjgsMCwwLjU1LDAuMTEsMC43NSwwLjMyICBjMC4yLDAuMiwwLjMxLDAuNDcsMC4zMSwwLjc1YzAsMC4yOC0wLjExLDAuNTUtMC4zMSwwLjc1QzYuMTEsMzAuODIsNS44NCwzMC45NCw1LjU1LDMwLjk0eiIvPiYjeGE7PHBhdGggaWQ9InBhdGgxNjg1MTIiIGlua3NjYXBlOmNvbm5lY3Rvci1jdXJ2YXR1cmU9IjAiIHN0eWxlPSJmaWxsOiNGRkZGRkY7IiBkPSJNMjAuNDUsMzAuNzVoLTEuOTdsLTcuMDItMTAuOTEgIGMtMC4xOC0wLjI3LTAuMzItMC41NS0wLjQ0LTAuODVoLTAuMDZjMC4wNywwLjYyLDAuMDksMS4yNSwwLjA4LDEuODd2OS44OWgtMS42VjE3LjA4aDIuMDhsNi44NCwxMC43MSAgYzAuMjgsMC40NCwwLjQ3LDAuNzUsMC41NSwwLjkxaDAuMDRjLTAuMDgtMC42Ny0wLjExLTEuMzQtMC4xLTIuMDF2LTkuNjFoMS42VjMwLjc1eiIvPiYjeGE7PHBhdGggaWQ9InBhdGgxNjg1MTciIGlua3NjYXBlOmNvbm5lY3Rvci1jdXJ2YXR1cmU9IjAiIHN0eWxlPSJmaWxsOiNGRkZGRkY7IiBkPSJNMzEuMjcsMzAuNzVIMjRWMTcuMDhoNi45M3YxLjQ0aC01LjN2NC41NWg0Ljk0ICB2MS40NGgtNC45NHY0Ljc0aDUuNjRWMzAuNzV6Ii8+JiN4YTs8cGF0aCBpZD0icGF0aDE2ODUyMiIgaW5rc2NhcGU6Y29ubmVjdG9yLWN1cnZhdHVyZT0iMCIgc3R5bGU9ImZpbGw6I0ZGRkZGRjsiIGQ9Ik00MiwxOC41MmgtMy45N3YxMi4yM2gtMS42VjE4LjUySDMyLjV2LTEuNDRINDIgIFYxOC41MnoiLz4mI3hhOzwvc3ZnPg==;" parent="cMTnH-UVxewZ_KafLdWO-24" vertex="1">
          <mxGeometry x="102" width="88" height="88" as="geometry" />
        </mxCell>
        <mxCell id="cMTnH-UVxewZ_KafLdWO-22" value="" style="endArrow=classic;html=1;rounded=0;" parent="cMTnH-UVxewZ_KafLdWO-24" edge="1">
          <mxGeometry width="50" height="50" relative="1" as="geometry">
            <mxPoint y="43.60000000000002" as="sourcePoint" />
            <mxPoint x="102" y="43.60000000000002" as="targetPoint" />
          </mxGeometry>
        </mxCell>
        <mxCell id="cMTnH-UVxewZ_KafLdWO-23" value="HTTP" style="edgeLabel;html=1;align=center;verticalAlign=middle;resizable=0;points=[];" parent="cMTnH-UVxewZ_KafLdWO-22" vertex="1" connectable="0">
          <mxGeometry x="0.3122" y="-1" relative="1" as="geometry">
            <mxPoint as="offset" />
          </mxGeometry>
        </mxCell>
      </root>
    </mxGraphModel>
  </diagram>
</mxfile>
